<?xml version="1.0" standalone="no"?>
<!DOCTYPE svg PUBLIC "-//W3C//DTD SVG 20010904//EN"
 "http://www.w3.org/TR/2001/REC-SVG-20010904/DTD/svg10.dtd">
<svg version="1.0" xmlns="http://www.w3.org/2000/svg"
 width="144.000000pt" height="139.000000pt" viewBox="0 0 144.000000 139.000000"
 preserveAspectRatio="xMidYMid meet">

<g transform="translate(0.000000,139.000000) scale(0.100000,-0.100000)"
fill="#000000" stroke="none">
<path d="M1186 1369 c-17 -16 -17 -19 -3 -19 12 0 17 -12 20 -47 3 -40 4 -37
5 20 1 37 1 67 0 66 -2 0 -12 -9 -22 -20z"/>
<path d="M33 1232 c-19 -12 -32 -56 -22 -75 12 -20 40 -22 57 -5 20 20 13 32
-7 14 -36 -32 -59 15 -25 49 13 12 19 13 30 4 16 -13 30 -6 19 10 -7 13 -35
14 -52 3z"/>
<path d="M118 1223 c-22 -25 -27 -45 -16 -65 21 -43 81 -6 76 46 -4 37 -35 47
-60 19z m52 -21 c0 -22 -29 -52 -46 -45 -19 7 -18 32 2 54 18 20 44 15 44 -9z"/>
<path d="M210 1224 c-12 -14 -12 -18 4 -30 10 -7 24 -15 30 -17 8 -3 7 -8 -1
-17 -10 -11 -15 -11 -28 0 -17 14 -31 8 -20 -9 8 -15 48 -14 63 1 19 19 14 37
-13 44 -14 3 -25 10 -25 14 0 14 27 19 40 7 10 -9 11 -9 8 3 -6 21 -42 24 -58
4z"/>
<path d="M300 1224 c-12 -14 -12 -18 4 -30 10 -7 24 -15 30 -17 8 -3 7 -8 -1
-17 -10 -11 -15 -11 -28 0 -17 14 -31 8 -20 -9 8 -15 48 -14 63 1 19 19 14 37
-13 44 -14 3 -25 10 -25 14 0 14 27 19 40 7 10 -9 11 -9 8 3 -6 21 -42 24 -58
4z"/>
<path d="M397 1222 c-19 -21 -23 -67 -6 -77 14 -9 59 3 59 16 0 6 -6 6 -17 1
-22 -12 -43 -5 -43 14 0 9 11 14 33 14 41 0 49 7 36 31 -12 24 -41 24 -62 1z
m53 -13 c0 -5 -11 -9 -25 -9 -26 0 -34 15 -12 23 16 5 37 -3 37 -14z"/>
<path d="M503 1232 c-19 -12 -32 -56 -22 -75 12 -20 40 -22 57 -5 20 20 13 32
-7 14 -36 -32 -59 15 -25 49 13 12 19 13 30 4 16 -13 30 -6 19 10 -7 13 -35
14 -52 3z"/>
<path d="M666 1218 c4 -16 0 -36 -11 -52 -19 -29 -10 -36 11 -8 12 16 14 16
29 -3 16 -19 16 -19 10 9 -4 18 0 37 10 52 18 27 9 33 -11 7 -12 -17 -14 -17
-29 2 -15 19 -15 19 -9 -7z"/>
<path d="M823 1193 c15 -2 37 -2 50 0 12 2 0 4 -28 4 -27 0 -38 -2 -22 -4z"/>
<path d="M1088 1183 c68 -2 176 -2 240 0 64 1 9 3 -123 3 -132 0 -185 -2 -117
-3z"/>
<path d="M823 1163 c15 -2 37 -2 50 0 12 2 0 4 -28 4 -27 0 -38 -2 -22 -4z"/>
<path d="M1000 1094 c-12 -14 -12 -18 4 -30 10 -7 24 -15 30 -18 7 -3 6 -8 -4
-15 -10 -7 -18 -6 -27 1 -15 13 -28 4 -18 -11 8 -15 48 -14 63 1 19 19 14 37
-13 44 -14 3 -25 10 -25 14 0 14 27 19 40 7 10 -9 11 -9 8 3 -6 21 -42 24 -58
4z"/>
<path d="M1097 1092 c-19 -21 -23 -67 -6 -77 14 -9 59 3 59 16 0 6 -6 6 -17 1
-22 -12 -43 -5 -43 14 0 9 11 14 33 14 41 0 49 7 36 31 -12 24 -41 24 -62 1z
m53 -13 c0 -5 -11 -9 -25 -9 -26 0 -34 15 -12 23 16 5 37 -3 37 -14z"/>
<path d="M1182 1058 c-5 -26 -5 -48 -1 -48 4 0 11 16 15 35 13 70 58 72 49 2
-4 -31 -3 -37 4 -22 5 11 10 34 10 52 1 31 -1 32 -33 31 -32 -1 -34 -3 -44
-50z"/>
<path d="M1356 1088 c4 -16 0 -36 -11 -52 -19 -29 -10 -36 11 -8 12 16 14 16
29 -3 16 -19 16 -19 10 9 -4 18 0 37 10 52 18 27 9 33 -11 7 -12 -17 -14 -17
-29 2 -15 19 -15 19 -9 -7z"/>
<path d="M896 879 c-17 -16 -17 -19 -3 -19 12 0 17 -12 20 -47 3 -40 4 -37 5
20 1 37 1 67 0 66 -2 0 -12 -9 -22 -20z"/>
<path d="M20 734 c-12 -14 -12 -18 4 -30 10 -7 24 -15 30 -17 8 -3 7 -8 -1
-17 -10 -11 -15 -11 -28 0 -17 14 -31 8 -20 -9 8 -15 48 -14 63 1 19 19 14 37
-13 44 -14 3 -25 10 -25 14 0 14 27 19 40 7 10 -9 11 -9 8 3 -6 21 -42 24 -58
4z"/>
<path d="M117 732 c-19 -21 -23 -67 -6 -77 14 -9 59 3 59 16 0 6 -6 6 -17 1
-22 -12 -43 -5 -43 14 0 9 11 14 33 14 41 0 49 7 36 31 -12 24 -41 24 -62 1z
m53 -13 c0 -5 -12 -9 -26 -9 -22 0 -24 2 -14 14 12 15 40 11 40 -5z"/>
<path d="M223 742 c-19 -12 -32 -56 -22 -75 12 -20 40 -22 57 -5 20 20 13 32
-7 14 -36 -32 -59 15 -25 49 13 12 19 13 30 4 16 -13 30 -6 19 10 -7 13 -35
14 -52 3z"/>
<path d="M386 728 c4 -16 0 -36 -11 -52 -19 -29 -10 -36 11 -8 12 16 14 16 29
-3 16 -19 16 -19 10 9 -4 18 0 37 10 52 18 27 9 33 -11 7 -12 -17 -14 -17 -29
2 -15 19 -15 19 -9 -7z"/>
<path d="M543 703 c15 -2 37 -2 50 0 12 2 0 4 -28 4 -27 0 -38 -2 -22 -4z"/>
<path d="M793 693 c64 -2 170 -2 235 0 64 1 11 3 -118 3 -129 0 -182 -2 -117
-3z"/>
<path d="M543 673 c15 -2 37 -2 50 0 12 2 0 4 -28 4 -27 0 -38 -2 -22 -4z"/>
<path d="M723 612 c-19 -12 -32 -56 -22 -75 12 -20 40 -22 57 -5 20 20 13 32
-7 14 -36 -32 -59 15 -25 49 13 12 19 13 30 4 16 -13 30 -6 19 10 -7 13 -35
14 -52 3z"/>
<path d="M808 603 c-22 -25 -27 -45 -16 -65 21 -43 81 -6 76 46 -4 37 -35 47
-60 19z m52 -21 c0 -22 -29 -52 -46 -45 -19 7 -18 32 2 54 18 20 44 15 44 -9z"/>
<path d="M900 604 c-12 -14 -12 -18 4 -30 10 -7 24 -15 30 -17 8 -3 7 -8 -1
-17 -10 -11 -15 -11 -28 0 -17 14 -31 8 -20 -9 8 -15 48 -14 63 1 19 19 14 37
-13 44 -14 3 -25 10 -25 14 0 14 27 19 40 7 10 -9 11 -9 8 3 -6 21 -42 24 -58
4z"/>
<path d="M1066 598 c4 -16 0 -36 -11 -52 -19 -29 -10 -36 11 -8 12 16 14 16
29 -3 16 -19 16 -19 10 9 -4 18 0 37 10 52 18 27 9 33 -11 7 -12 -17 -14 -17
-29 2 -15 19 -15 19 -9 -7z"/>
<path d="M896 399 c-17 -16 -17 -19 -3 -19 12 0 17 -12 20 -47 3 -40 4 -37 5
20 1 37 1 67 0 66 -2 0 -12 -9 -22 -20z"/>
<path d="M221 278 c0 -10 -4 -18 -8 -18 -5 0 -9 -23 -10 -50 -2 -41 0 -50 14
-50 12 0 14 3 6 11 -13 13 0 68 19 81 9 5 10 8 1 8 -6 0 -14 8 -16 18 -4 16
-5 16 -6 0z"/>
<path d="M33 252 c-19 -12 -32 -56 -22 -75 12 -20 40 -22 57 -5 20 20 13 32
-7 14 -36 -32 -59 15 -25 49 13 12 19 13 30 4 16 -13 30 -6 19 10 -7 13 -35
14 -52 3z"/>
<path d="M118 243 c-22 -25 -27 -45 -16 -65 21 -43 81 -6 76 46 -4 37 -35 47
-60 19z m52 -21 c0 -22 -29 -52 -46 -45 -19 7 -18 38 1 57 18 18 45 11 45 -12z"/>
<path d="M273 252 c-7 -4 -17 -20 -23 -36 -13 -34 3 -60 32 -53 23 6 24 -18 2
-27 -9 -4 -23 -1 -30 5 -9 8 -14 8 -14 1 0 -17 19 -24 45 -18 18 5 27 16 34
44 22 89 22 87 -7 89 -15 1 -33 -1 -39 -5z m40 -42 c-7 -25 -29 -44 -43 -35
-15 9 -12 41 6 60 20 20 44 4 37 -25z"/>
<path d="M446 238 c4 -16 0 -36 -11 -52 -19 -29 -10 -36 11 -8 12 16 14 16 29
-3 16 -19 16 -19 10 9 -4 18 0 37 10 52 18 27 9 33 -11 7 -12 -17 -14 -17 -29
2 -15 19 -15 19 -9 -7z"/>
<path d="M603 213 c15 -2 37 -2 50 0 12 2 0 4 -28 4 -27 0 -38 -2 -22 -4z"/>
<path d="M823 203 c48 -2 126 -2 175 0 48 1 8 3 -88 3 -96 0 -136 -2 -87 -3z"/>
<path d="M603 183 c15 -2 37 -2 50 0 12 2 0 4 -28 4 -27 0 -38 -2 -22 -4z"/>
<path d="M781 158 c0 -10 -4 -18 -8 -18 -5 0 -9 -23 -10 -50 -2 -41 0 -50 14
-50 12 0 14 3 6 11 -13 13 0 68 19 81 9 5 10 8 1 8 -6 0 -14 8 -16 18 -4 16
-5 16 -6 0z"/>
<path d="M833 132 c-7 -4 -17 -20 -23 -36 -13 -34 3 -60 32 -53 23 6 24 -18 2
-27 -9 -4 -23 -1 -30 5 -9 8 -14 8 -14 1 0 -17 19 -24 45 -18 18 5 27 16 34
44 22 89 22 87 -7 89 -15 1 -33 -1 -39 -5z m40 -42 c-7 -25 -29 -44 -43 -35
-15 9 -12 41 6 60 20 20 44 4 37 -25z"/>
<path d="M1006 118 c4 -16 0 -36 -11 -52 -19 -29 -10 -36 11 -9 12 17 14 17
29 -2 16 -19 16 -19 10 9 -4 18 0 37 10 52 18 27 9 33 -11 7 -12 -17 -14 -17
-29 2 -15 19 -15 19 -9 -7z"/>
</g>
</svg>
