<?xml version="1.0" standalone="no"?>
<!DOCTYPE svg PUBLIC "-//W3C//DTD SVG 20010904//EN"
 "http://www.w3.org/TR/2001/REC-SVG-20010904/DTD/svg10.dtd">
<svg version="1.0" xmlns="http://www.w3.org/2000/svg"
 width="600.000000pt" height="315.000000pt" viewBox="0 0 600.000000 315.000000"
 preserveAspectRatio="xMidYMid meet">

<g transform="translate(0.000000,315.000000) scale(0.100000,-0.100000)"
 stroke="none">
<path d="M0 2993 l0 -158 164 -165 c91 -91 225 -226 298 -300 73 -75 199 -199
281 -276 81 -78 147 -148 147 -155 0 -16 -180 -209 -195 -209 -9 0 -85 73
-532 512 l-163 159 0 -395 c0 -268 3 -397 11 -401 6 -4 9 -19 7 -34 -1 -15 6
-40 16 -55 21 -32 15 -56 -14 -56 -27 0 -26 -14 3 -27 l22 -11 -25 -10 c-24
-9 -24 -9 -3 -16 12 -4 25 -16 28 -27 7 -21 -18 -69 -35 -69 -6 0 -10 -9 -10
-20 0 -19 7 -20 110 -20 61 0 110 -4 110 -9 0 -16 -59 -23 -141 -16 -71 6 -79
5 -79 -10 0 -11 5 -15 15 -11 9 3 21 -5 32 -22 10 -15 23 -31 30 -35 20 -13
15 -54 -9 -77 -25 -23 -39 -25 -56 -8 -9 9 -12 -77 -12 -391 0 -394 0 -402 19
-396 43 13 95 -89 109 -213 l7 -67 78 -3 c56 -2 77 0 77 10 0 23 41 363 61
508 11 80 27 195 35 255 10 73 23 127 39 161 14 28 25 57 26 65 0 8 13 -13 29
-46 21 -45 31 -85 39 -160 17 -173 51 -467 61 -530 4 -33 12 -101 15 -151 4
-50 10 -96 14 -103 6 -8 30 -10 87 -5 l80 7 12 61 c20 106 55 201 75 204 45 9
94 -86 112 -217 l7 -53 37 6 c20 3 59 6 86 6 l50 0 19 64 c18 64 67 138 82
123 4 -4 -2 -17 -14 -30 -24 -25 -76 -156 -67 -166 4 -3 245 -7 537 -9 l530
-3 -7 20 c-7 23 4 28 23 9 18 -18 25 -3 11 21 -16 24 -8 35 19 27 16 -6 20
-14 17 -44 -2 -36 -2 -36 12 -15 19 28 33 30 26 3 -3 -11 0 -20 6 -20 6 0 11
7 11 15 0 8 5 15 10 15 6 0 10 -7 10 -15 0 -13 30 -15 211 -15 l211 0 -7 27
c-3 16 -31 84 -62 153 -150 340 -148 329 -65 366 76 34 367 148 417 164 22 7
103 37 180 67 77 30 181 70 230 88 129 48 323 126 445 180 58 25 111 49 118
52 24 10 11 -27 -57 -164 -38 -76 -74 -158 -81 -183 -17 -62 -102 -262 -165
-389 -30 -58 -80 -163 -114 -233 l-60 -128 345 0 c321 0 344 1 344 18 1 37 59
223 86 274 16 29 56 80 90 113 101 101 213 142 361 132 71 -4 97 -11 156 -40
167 -84 287 -242 309 -413 l12 -84 261 0 262 0 6 128 c4 70 14 221 23 337 8
116 18 300 22 411 7 210 13 234 54 234 17 0 19 7 18 53 -5 146 0 187 21 208
11 11 27 18 35 15 12 -4 14 20 14 150 0 144 -1 154 -17 146 -10 -5 -23 -7 -30
-5 -6 2 -21 -5 -32 -16 -27 -27 -77 -28 -91 -2 -16 30 -12 50 15 76 32 33 72
33 85 0 5 -14 17 -25 25 -25 9 0 14 4 10 9 -3 5 0 13 6 17 6 3 15 0 20 -7 5
-8 8 151 7 376 0 302 -3 370 -10 300 -5 -49 -7 -141 -5 -202 2 -62 0 -113 -4
-113 -3 0 -123 -18 -265 -41 -143 -22 -290 -43 -329 -46 -67 -5 -73 -3 -135
32 -36 20 -112 61 -171 90 -58 29 -111 61 -119 70 -12 14 -14 79 -11 373 1
196 5 359 7 361 6 6 12 7 144 26 58 8 164 19 235 25 72 5 164 19 205 30 94 25
90 25 134 -5 20 -14 67 -41 104 -61 37 -20 99 -54 139 -76 l72 -39 4 -67 c2
-37 4 35 5 161 l2 227 -3000 0 -3000 0 0 -157z m2039 92 c3 -17 1 -18 -13 -6
-19 16 -46 -1 -46 -29 0 -25 24 -31 49 -14 17 12 21 13 21 2 0 -39 -62 -52
-80 -18 -6 12 -8 30 -5 40 15 48 66 65 74 25z m1781 -11 c30 -14 116 -50 190
-81 74 -30 157 -66 184 -80 27 -13 89 -40 138 -59 49 -18 109 -48 134 -65 42
-29 44 -32 38 -67 -13 -81 -39 -136 -111 -239 -42 -60 -108 -153 -146 -208
-39 -55 -105 -143 -146 -195 -42 -52 -99 -126 -126 -165 -71 -99 -136 -162
-184 -176 -55 -16 -91 -5 -261 85 -75 40 -152 78 -171 86 -77 30 -247 127
-286 163 -23 21 -45 52 -48 68 -10 46 28 112 125 213 136 145 415 499 501 636
76 123 81 125 169 84z m-1066 -90 c-24 -62 -23 -140 0 -193 19 -41 17 -59 -4
-46 -23 14 -40 75 -40 139 0 65 11 106 39 139 23 27 25 12 5 -39z m401 10 c3
-25 4 -48 1 -51 -9 -10 -26 8 -26 29 0 17 -2 18 -15 8 -24 -20 -29 -4 -9 29
26 43 41 39 49 -15z m57 29 c53 -60 84 -201 59 -265 -19 -49 -26 -30 -26 70 0
94 -2 101 -32 151 -18 29 -33 54 -33 57 0 10 18 3 32 -13z m-2282 -8 c0 -3 -5
-14 -11 -24 -14 -22 -5 -67 16 -75 11 -4 15 1 15 19 0 29 27 47 52 34 28 -15
22 -47 -12 -64 -40 -21 -66 -19 -84 7 -16 22 -22 89 -9 101 7 8 33 9 33 2z
m1919 -9 c9 -11 9 -20 2 -35 -15 -28 -14 -31 10 -28 37 4 32 -20 -6 -27 -48
-9 -58 -1 -40 34 17 34 17 46 -2 42 -14 -3 -18 10 -6 21 11 11 30 8 42 -7z
m221 -11 c0 -9 -9 -15 -24 -15 -28 0 -43 16 -24 23 26 11 48 7 48 -8z m-1065
-25 c266 -83 450 -276 499 -522 17 -82 20 -204 7 -278 -10 -55 -14 -44 -11 33
l2 57 -719 -2 -718 -3 0 -30 c1 -16 4 -42 8 -57 4 -16 3 -28 -2 -28 -20 0 -32
104 -22 192 19 166 91 322 206 446 97 105 196 164 337 203 101 27 310 21 413
-11z m2835 11 c15 -5 -38 -31 -62 -31 -29 0 -29 -1 -26 -52 2 -43 6 -52 20
-50 22 3 33 -15 18 -33 -17 -21 -47 -19 -60 4 -5 11 -10 45 -10 75 0 63 -16
73 -57 35 -20 -20 -23 -20 -29 -5 -7 19 11 45 41 56 16 6 145 7 165 1z m-2294
-88 c13 -29 24 -60 24 -68 0 -17 -16 -20 -25 -5 -11 18 -53 11 -60 -10 -3 -11
-11 -20 -17 -20 -6 0 -8 9 -3 23 4 12 14 50 23 84 8 34 20 59 25 56 5 -3 20
-30 33 -60z m-1676 17 c4 0 8 -12 8 -26 0 -18 -5 -24 -15 -20 -8 3 -18 6 -23
6 -4 0 -7 11 -6 25 1 17 6 23 14 20 8 -3 17 -5 22 -5z m1800 -20 c0 -5 -11
-10 -25 -10 -14 0 -25 5 -25 10 0 6 11 10 25 10 14 0 25 -4 25 -10z m487 -27
c4 -9 -1 -29 -10 -45 l-16 -28 30 0 c20 0 29 -4 26 -12 -4 -11 -75 -14 -85 -3
-2 1 6 18 17 36 23 37 27 54 11 44 -11 -7 -14 8 -3 18 11 12 23 8 30 -10z
m-2372 -14 c-3 -17 0 -20 22 -17 15 2 28 -3 30 -9 3 -8 -5 -13 -21 -13 -16 0
-26 -6 -26 -15 0 -8 -7 -15 -15 -15 -8 0 -15 6 -15 13 0 7 -9 18 -20 25 -11 7
-20 17 -20 23 0 6 9 8 20 4 14 -5 20 -2 20 9 0 9 6 16 14 16 10 0 13 -7 11
-21z m1895 11 c0 -5 -11 -10 -25 -10 -14 0 -25 5 -25 10 0 6 11 10 25 10 14 0
25 -4 25 -10z m217 -17 c4 -10 13 -23 20 -28 19 -14 8 -38 -26 -58 -36 -21
-61 -22 -61 -2 0 9 9 15 24 15 13 0 29 7 36 15 9 10 9 15 1 15 -6 0 -11 6 -11
14 0 8 -5 16 -12 18 -13 5 -2 28 13 28 5 0 13 -8 16 -17z m-2222 -14 c4 -5 18
-14 31 -19 30 -12 42 -56 21 -77 -15 -16 -47 -12 -47 6 0 5 9 11 21 14 22 6
21 34 -1 29 -7 -1 -19 5 -27 15 -10 13 -16 15 -19 6 -8 -20 -24 -15 -24 6 0
26 33 41 45 20z m2428 -4 c1 -5 -6 -11 -15 -13 -11 -2 -18 3 -18 13 0 17 30
18 33 0z m-262 -10 c0 -13 -41 -19 -41 -7 0 11 20 22 33 18 5 -1 8 -6 8 -11z
m-2201 -96 c0 -5 5 -7 10 -4 6 3 10 0 10 -7 0 -18 -43 -45 -48 -29 -2 6 -10
11 -18 11 -21 0 -17 16 9 28 29 14 37 14 37 1z m-73 -86 c60 -64 77 -102 56
-125 -9 -10 -20 -18 -24 -18 -13 0 -39 56 -39 84 0 13 -3 32 -6 41 -6 14 -8
13 -21 -5 -16 -23 -31 -25 -55 -7 -18 14 -35 67 -22 67 5 0 17 -14 26 -31 21
-37 42 -29 33 12 -4 16 -3 29 0 29 4 0 27 -21 52 -47z m456 -360 c3 -27 9 -56
12 -65 5 -11 2 -18 -5 -18 -6 0 -14 9 -17 20 -7 25 -41 26 -59 3 -7 -10 -15
-15 -18 -12 -7 6 64 119 75 119 3 0 9 -21 12 -47z m1598 30 c10 -73 8 -93 -10
-103 -11 -5 -34 -7 -51 -3 -31 6 -32 7 -26 46 4 23 12 47 18 54 11 14 67 18
69 6z m-793 -85 c19 -19 14 -27 -15 -25 -19 1 -28 -3 -28 -13 0 -10 8 -14 23
-12 12 2 22 -2 22 -8 0 -6 -12 -10 -27 -8 -35 4 -45 45 -17 65 22 16 27 16 42
1z m-144 -161 c10 -7 19 -28 20 -45 1 -20 9 -38 24 -47 32 -23 29 -69 -7 -106
-35 -34 -51 -36 -76 -9 -23 26 -6 52 20 30 20 -17 45 3 45 36 0 23 -12 29 -46
25 -6 -1 -17 5 -23 13 -10 12 -8 17 8 26 23 12 28 35 10 46 -31 19 -48 -44
-49 -188 0 -27 -4 -38 -15 -38 -12 0 -15 17 -15 89 0 92 9 133 37 163 19 21
43 23 67 5z m2616 -398 l0 -380 23 18 c32 25 155 133 181 159 36 36 128 101
183 128 143 71 297 73 413 3 97 -58 298 -206 356 -261 35 -34 67 -60 69 -57 3
2 5 -1 5 -7 0 -8 27 -12 85 -12 71 0 85 -3 85 -16 0 -14 -11 -16 -75 -12 l-74
3 26 -27 c20 -21 23 -28 11 -28 -9 0 -21 7 -28 15 -7 9 -21 13 -31 10 -14 -5
-19 -1 -19 12 0 17 -17 18 -300 20 -290 1 -300 1 -300 -18 0 -24 -20 -25 -26
-1 -5 16 -26 17 -295 14 l-289 -3 0 -30 c0 -18 -4 -28 -10 -24 -5 3 -10 18
-10 32 0 26 -1 26 -35 -13 -37 -42 -49 -34 -14 10 l20 26 -20 0 c-12 0 -21 6
-21 16 0 8 4 13 10 9 5 -3 21 -3 35 1 l25 6 0 400 c0 263 3 397 10 393 6 -4
10 -144 10 -386z m52 303 c4 10 9 8 23 -5 14 -14 15 -23 8 -40 -6 -12 -15 -34
-22 -49 -6 -16 -15 -28 -21 -28 -20 0 -24 33 -8 61 14 23 14 28 2 33 -8 3 -14
16 -14 28 1 22 1 22 14 5 10 -13 15 -15 18 -5z m1550 -107 c8 -19 15 -22 28
-15 17 9 30 4 30 -11 0 -13 -59 -41 -70 -34 -6 3 -10 19 -10 35 0 24 -3 27
-22 22 -21 -5 -22 -4 -9 11 19 24 40 21 53 -8z m-952 -75 c0 -5 -4 -10 -10
-10 -5 0 -10 5 -10 10 0 6 5 10 10 10 6 0 10 -4 10 -10z m-2385 -15 c162 -34
322 -144 395 -274 31 -55 38 -61 61 -57 24 5 29 0 47 -42 24 -58 45 -123 40
-126 -8 -5 -147 -66 -193 -84 -27 -11 -111 -46 -185 -77 -74 -32 -171 -72
-215 -90 -44 -18 -145 -61 -225 -95 -80 -34 -192 -79 -250 -101 -120 -45 -118
-46 -145 45 -20 65 -19 96 1 96 10 0 14 6 10 18 -14 48 -26 144 -26 208 0 382
323 655 685 579z m2155 -24 c0 -25 16 -36 24 -16 7 18 26 20 26 3 0 -7 -5 -30
-11 -50 -10 -38 -22 -45 -48 -29 -12 8 -12 12 -2 25 7 9 17 14 21 11 5 -3 11
-1 15 5 3 5 -3 10 -13 10 -20 0 -32 18 -32 46 0 8 5 14 10 14 6 0 10 -9 10
-19z m188 0 c3 -8 0 -11 -7 -7 -6 4 -11 3 -11 -3 0 -5 5 -13 10 -16 6 -3 10
-13 10 -21 0 -19 -34 -18 -50 1 -9 10 -9 15 -1 15 6 0 11 12 11 26 0 18 5 25
17 22 9 -2 18 -9 21 -17z m32 -21 c0 -16 -4 -30 -10 -30 -11 0 -14 43 -3 53
11 12 13 8 13 -23z m50 20 c12 0 20 -28 14 -45 -4 -8 -10 -13 -15 -10 -4 3 -6
12 -2 20 3 8 0 15 -6 15 -6 0 -11 -7 -11 -15 0 -8 -4 -15 -10 -15 -5 0 -10 14
-10 31 0 24 3 30 16 25 9 -3 19 -6 24 -6z m110 -11 c0 -4 -4 -10 -9 -13 -5 -3
-7 -15 -4 -25 4 -16 1 -19 -14 -15 -14 4 -20 14 -20 33 0 23 5 29 24 29 13 0
23 -4 23 -9z m-270 -3 c0 -2 3 -11 6 -20 4 -11 1 -16 -10 -16 -9 0 -16 2 -16
4 0 2 -3 11 -6 20 -4 11 -1 16 10 16 9 0 16 -2 16 -4z m765 -44 c5 -12 15 -20
22 -18 20 8 24 -11 7 -29 -21 -21 -50 -15 -47 10 1 11 0 27 -3 35 -4 12 -6 13
-14 0 -11 -18 -24 -6 -16 15 8 23 39 15 51 -13z m-4249 -17 c73 -16 125 -32
136 -43 17 -17 19 -50 23 -406 l4 -388 -25 -25 c-65 -65 -231 -94 -419 -74
-135 15 -199 32 -238 63 l-27 23 -2 150 c0 83 1 259 3 392 4 238 4 242 28 267
28 29 63 43 146 55 119 17 247 12 371 -14z m4419 -14 c6 -11 -26 -31 -49 -31
-23 0 -19 15 7 28 28 14 35 14 42 3z m30 -31 c7 -12 -62 -47 -72 -36 -9 9 33
46 53 46 7 0 16 -4 19 -10z m-5715 -33 c0 -29 23 -62 38 -53 6 4 9 13 6 20 -3
8 -1 17 5 21 13 7 31 -35 31 -70 0 -31 -20 -43 -27 -16 -3 12 -11 20 -17 18
-21 -8 -45 13 -55 50 -10 37 -7 53 10 53 5 0 9 -10 9 -23z m5530 13 c0 -6 -8
-10 -17 -8 -14 2 -18 -4 -18 -32 0 -40 25 -52 55 -25 25 22 38 0 14 -26 -46
-51 -128 17 -94 80 11 22 60 30 60 11z m-1842 -129 c2 -7 -5 -15 -16 -18 -24
-6 -32 -30 -32 -95 0 -47 12 -63 24 -33 7 18 36 20 36 2 0 -22 -31 -57 -50
-57 -36 0 -53 43 -45 115 6 56 4 65 -9 65 -11 0 -16 -10 -16 -32 -1 -75 -29
-138 -62 -138 -13 0 -9 38 4 42 13 5 25 128 12 128 -4 0 -16 -8 -26 -17 -14
-13 -21 -14 -30 -5 -9 9 -6 18 12 37 23 24 28 25 109 21 54 -2 87 -8 89 -15z
m-3618 -41 c4 -8 12 -25 18 -37 16 -31 15 -53 -5 -75 -17 -19 -59 -24 -82 -9
-21 14 -3 32 25 25 24 -6 54 9 54 27 0 5 -9 9 -21 9 -16 0 -19 4 -14 20 9 27
-3 44 -20 30 -15 -13 -30 3 -20 21 10 15 57 7 65 -11z m5546 -126 c-2 -34 -43
-34 -43 0 0 18 5 24 22 24 18 0 22 -6 21 -24z m-5518 -182 c4 -52 2 -64 -9
-60 -9 3 -15 23 -17 53 -3 45 -4 47 -18 26 -16 -22 -34 -28 -34 -11 0 6 12 29
26 52 23 37 27 39 36 23 6 -10 13 -47 16 -83z m4192 38 c16 -30 12 -58 -11
-70 -31 -17 -50 4 -48 54 1 23 4 44 6 49 6 11 41 -11 53 -33z m555 -45 c0 -44
-1 -45 -32 -45 -18 0 -33 5 -33 10 0 6 11 10 24 10 20 0 23 4 19 21 -5 18 -7
19 -15 5 -5 -9 -16 -16 -25 -16 -12 0 -13 3 -4 13 6 8 8 17 4 21 -10 9 17 26
42 26 17 0 20 -7 20 -45z m596 12 c-6 -6 -11 -24 -11 -39 0 -32 -19 -38 -27
-8 -5 19 -6 19 -18 3 -12 -16 -13 -13 -12 19 1 34 4 37 31 40 38 4 51 -1 37
-15z m-611 -82 c0 -8 5 -15 11 -15 5 0 7 -4 4 -10 -3 -5 -17 -10 -29 -10 -18
0 -23 6 -23 25 0 18 5 25 18 25 11 0 19 -7 19 -15z m484 -328 c14 -10 20 -33
25 -85 4 -39 11 -75 15 -79 5 -4 6 23 3 61 -5 72 5 122 23 111 5 -3 10 -41 10
-83 0 -56 3 -73 11 -65 7 7 11 38 10 71 -1 64 14 90 46 78 12 -5 14 -9 5 -18
-7 -7 -12 -38 -12 -71 0 -52 -3 -62 -30 -89 -24 -24 -30 -38 -30 -74 0 -32 -4
-44 -15 -44 -11 0 -15 12 -15 44 0 35 -4 46 -19 51 -25 7 -41 54 -41 117 0 34
-5 50 -15 54 -18 7 -20 34 -2 34 7 0 21 -6 31 -13z m-1249 -37 c37 -14 26 -35
-18 -35 -41 0 -50 -15 -18 -31 34 -18 59 -44 65 -70 7 -25 -8 -63 -28 -76 -20
-14 -83 -8 -96 8 -19 22 -16 71 5 94 14 16 16 23 7 32 -18 18 -14 66 6 77 22
13 44 14 77 1z m-1865 -85 c7 -8 16 -15 21 -15 5 0 9 7 9 15 0 8 7 15 16 15
12 0 15 -6 11 -22 -21 -96 -21 -91 1 -84 30 10 38 -12 14 -37 -21 -20 -22 -20
-41 -3 -18 17 -22 17 -43 2 -32 -23 -55 -20 -74 9 -17 27 -13 73 12 113 17 25
55 29 74 7z m-840 -71 c0 -3 -5 -14 -11 -25 -14 -26 -4 -58 13 -41 41 41 33
-20 -13 -101 -36 -62 -62 -78 -87 -53 -26 26 -5 67 52 97 40 22 45 27 27 32
-23 6 -29 44 -11 78 10 17 30 27 30 13z m134 -100 c17 -6 22 -34 7 -34 -5 0
-19 9 -32 20 -19 15 -21 19 -7 20 9 0 23 -3 32 -6z m-9 -36 c29 -13 33 -28 8
-28 -29 1 -72 40 -43 40 5 0 21 -5 35 -12z m138 -23 c4 -8 2 -17 -3 -20 -4 -3
-10 0 -12 7 -6 18 -28 0 -28 -24 0 -11 8 -22 20 -25 20 -5 28 -33 10 -33 -24
0 -60 34 -60 56 0 38 61 71 73 39z m112 -55 c20 -38 11 -68 -21 -76 -50 -13
-83 48 -47 88 24 27 50 22 68 -12z m96 -36 c11 -13 9 -14 -16 -8 l-28 7 22
-30 c21 -28 21 -63 -1 -63 -15 0 -68 30 -68 39 0 17 14 20 34 6 35 -25 41 -17
12 14 -16 16 -25 34 -22 40 10 16 52 13 67 -5z m99 -69 c0 -11 7 -14 28 -10
l27 6 -23 -17 c-21 -16 -22 -18 -6 -35 21 -23 10 -38 -14 -21 -9 7 -25 15 -34
18 -20 7 -23 20 -8 29 6 3 10 15 10 26 0 10 5 19 10 19 6 0 10 -7 10 -15z
m145 -77 c21 -10 36 -38 20 -38 -14 0 -65 32 -65 40 0 13 13 13 45 -2z m225
-48 c0 -5 -4 -10 -10 -10 -5 0 -10 5 -10 10 0 6 5 10 10 10 6 0 10 -4 10 -10z"/>
<path d="M3728 3068 c-9 -7 -35 -44 -59 -83 -43 -71 -196 -279 -253 -346 -17
-20 -53 -65 -81 -99 -27 -35 -92 -110 -144 -166 -106 -116 -151 -179 -151
-211 0 -25 47 -64 106 -88 51 -21 129 -61 449 -230 160 -85 215 -80 273 26 26
48 51 82 187 250 100 124 235 307 339 462 l100 147 -20 26 c-13 18 -57 42
-134 74 -63 26 -165 70 -226 98 -62 28 -124 54 -140 58 -15 4 -69 27 -120 51
-101 48 -104 48 -126 31z m330 -142 c90 -35 172 -74 172 -83 0 -10 -35 -63
-40 -60 -13 8 -103 47 -178 78 -46 19 -86 40 -89 47 -6 13 23 52 39 52 5 0 48
-15 96 -34z m-250 -32 c37 -15 146 -66 243 -115 96 -48 193 -92 215 -98 21 -6
50 -19 63 -30 l24 -18 -46 -71 c-50 -77 -75 -97 -116 -89 -38 7 -213 87 -302
139 -88 51 -138 73 -197 88 -57 15 -86 43 -77 78 10 39 87 141 108 141 10 1
49 -11 85 -25z m-317 -272 c13 -10 32 -22 42 -25 30 -11 32 -37 4 -64 -25 -25
-25 -25 -58 -8 -19 10 -41 21 -49 25 -28 14 -7 90 25 90 7 0 23 -8 36 -18z
m168 -77 c29 -19 59 -35 67 -35 23 0 94 -39 100 -55 6 -15 -23 -78 -34 -73 -4
2 -29 14 -55 27 -42 20 -48 26 -44 47 4 25 4 25 -17 6 -21 -18 -22 -18 -71 7
-37 20 -49 31 -47 45 4 22 31 66 41 66 3 0 30 -16 60 -35z m-215 -22 c25 -16
46 -33 46 -40 0 -7 -10 -24 -23 -38 -22 -27 -23 -27 -57 -9 -19 9 -42 20 -50
24 -22 10 -24 37 -6 65 21 32 34 31 90 -2z m555 -48 c48 -41 19 -77 -42 -51
-39 16 -61 41 -53 61 9 24 61 18 95 -10z m-415 -20 c30 -19 60 -35 66 -35 19
0 91 -41 96 -55 4 -11 -20 -75 -29 -75 -1 0 -27 13 -57 29 -33 17 -54 34 -54
44 1 12 -2 13 -15 6 -21 -13 -111 25 -111 47 0 21 29 74 40 74 5 0 34 -16 64
-35z m-224 -24 c49 -30 54 -51 20 -85 -17 -17 -21 -18 -42 -4 -13 8 -35 18
-50 22 -32 7 -37 38 -12 74 19 28 28 27 84 -7z m563 -16 c42 -21 46 -41 17
-78 l-20 -25 -52 27 c-28 15 -53 31 -55 36 -2 6 6 25 17 42 21 35 20 35 93 -2z
m195 11 c38 -20 65 -53 59 -71 -16 -39 -127 4 -127 49 0 22 10 33 33 35 4 1
20 -5 35 -13z m-571 -93 c2 -10 -6 -29 -17 -42 l-21 -24 -55 27 c-59 29 -62
39 -28 94 l15 22 52 -30 c28 -16 53 -37 54 -47z m-264 7 c26 -17 47 -34 47
-39 0 -6 -11 -22 -24 -37 -22 -26 -25 -27 -47 -13 -13 9 -36 19 -51 23 -32 7
-37 38 -12 74 20 29 29 28 87 -8z m790 0 c26 -17 47 -34 47 -39 0 -6 -10 -22
-23 -37 l-24 -27 -34 18 c-19 10 -41 21 -49 25 -22 10 -24 35 -4 64 21 33 28
32 87 -4z m-215 -18 c23 -12 42 -25 42 -29 0 -11 -45 -73 -50 -70 -3 2 -26 13
-52 25 -52 25 -57 38 -31 82 18 30 19 30 91 -8z m-228 -19 c44 -24 50 -32 46
-53 -4 -23 -3 -24 10 -5 14 19 15 18 69 -10 30 -17 55 -36 55 -44 0 -7 -11
-26 -23 -41 -23 -27 -24 -27 -48 -9 -13 10 -31 19 -40 19 -23 0 -42 27 -35 47
7 17 6 17 -9 2 -15 -15 -21 -14 -67 10 -29 15 -53 31 -55 36 -3 10 33 75 42
75 3 0 28 -12 55 -27z m-211 -34 c28 -18 51 -37 51 -44 0 -7 -9 -24 -21 -39
-19 -24 -22 -25 -42 -11 -12 8 -29 15 -39 15 -26 0 -50 29 -42 54 6 18 32 56
40 56 1 0 25 -14 53 -31z m619 -52 c2 -8 -8 -27 -21 -43 -22 -26 -26 -27 -42
-14 -10 8 -32 19 -49 25 -38 12 -42 30 -16 73 l21 33 52 -30 c28 -16 53 -36
55 -44z m-836 32 c26 -17 48 -37 48 -43 0 -7 -10 -22 -23 -34 l-23 -22 -52 22
c-33 14 -52 28 -52 39 0 16 36 69 47 69 4 0 28 -14 55 -31z m361 -46 c23 -16
44 -31 45 -36 2 -4 7 -5 12 -2 8 5 96 -37 114 -55 6 -6 0 -23 -14 -43 l-23
-34 -53 26 c-56 27 -62 37 -43 74 8 16 4 14 -13 -6 l-23 -29 -53 27 c-56 28
-63 45 -36 83 20 29 36 28 87 -5z m-227 -34 c30 -17 54 -34 54 -37 0 -4 -9
-22 -20 -40 -20 -32 -21 -32 -48 -19 -15 8 -39 20 -54 26 -16 6 -28 18 -28 26
0 18 28 75 37 75 3 0 30 -14 59 -31z m586 -10 c53 -34 56 -43 29 -78 l-19 -25
-44 19 c-47 21 -68 34 -68 44 0 11 39 71 46 71 4 0 29 -14 56 -31z m-435 -62
c42 -28 43 -29 28 -57 -21 -41 -26 -42 -84 -18 -56 24 -63 40 -34 88 18 32 26
31 90 -13z m358 -31 c58 -25 60 -45 13 -112 -81 -116 -92 -121 -165 -79 -23
14 -43 27 -43 29 0 11 74 125 96 149 29 30 50 33 99 13z m-229 -32 c24 -14 44
-29 44 -32 0 -13 -40 -72 -49 -72 -5 0 -14 6 -20 14 -7 8 -26 18 -42 21 -37 8
-45 26 -29 65 15 37 37 38 96 4z"/>
<path d="M4000 2906 c0 -8 4 -17 9 -20 5 -4 7 3 4 14 -6 23 -13 26 -13 6z"/>
<path d="M4021 2915 c1 -19 18 -51 18 -35 0 8 -4 22 -9 30 -5 8 -9 11 -9 5z"/>
<path d="M4101 2873 c-1 -12 4 -25 9 -28 12 -7 12 2 0 30 -8 19 -9 19 -9 -2z"/>
<path d="M4128 2855 c2 -14 6 -25 8 -25 2 0 4 11 4 25 0 14 -4 25 -9 25 -4 0
-6 -11 -3 -25z"/>
<path d="M3678 2849 c-43 -58 -49 -102 -19 -119 29 -15 34 -13 54 21 14 25 22
30 42 27 32 -7 53 16 35 37 -18 21 -6 29 19 13 26 -16 26 -19 1 -51 -14 -17
-26 -23 -40 -20 -11 3 -27 0 -36 -8 -14 -11 -14 -13 1 -21 8 -5 13 -13 11 -17
-3 -4 8 -12 25 -18 16 -6 27 -7 23 -2 -3 5 4 9 14 9 11 0 22 7 26 15 3 8 1 15
-4 15 -6 0 -10 5 -10 11 0 6 9 9 20 6 22 -6 48 17 30 28 -19 12 -11 26 10 15
11 -6 20 -16 20 -23 -1 -14 -62 -82 -82 -90 -11 -4 -11 -6 1 -6 7 -1 41 -18
75 -38 74 -45 283 -143 305 -143 9 0 27 7 40 16 25 18 81 100 81 120 0 7 -21
20 -47 30 -27 9 -140 62 -253 117 -198 96 -270 127 -294 127 -6 0 -28 -23 -48
-51z m262 -97 c0 -4 -5 -13 -12 -20 -23 -23 3 -25 27 -2 17 16 25 19 25 9 -1
-18 -78 -104 -87 -96 -3 4 2 16 12 27 18 20 18 21 0 33 -14 11 -16 17 -6 35
11 21 41 31 41 14z m110 -37 c0 -16 -32 -64 -61 -90 -39 -36 -33 -15 13 48 30
41 48 57 48 42z m68 -44 c3 -9 0 -12 -10 -8 -15 5 -38 -9 -38 -25 0 -4 7 -8
15 -8 21 0 18 -10 -10 -44 -23 -29 -24 -29 -49 -12 -14 9 -26 20 -26 23 0 4
19 27 42 50 42 43 67 51 76 24z m92 -39 c0 -3 -17 -26 -37 -51 -20 -25 -38
-48 -40 -50 -2 -2 -6 -1 -9 2 -7 7 13 41 45 74 26 27 8 43 -20 17 -24 -22 -27
1 -3 27 15 17 18 17 40 2 13 -8 24 -18 24 -21z m50 -8 c0 -3 -7 -12 -15 -20
-8 -9 -15 -20 -15 -25 0 -15 27 -10 34 6 6 16 26 21 26 7 0 -13 -70 -92 -82
-92 -6 0 -3 11 6 25 9 14 12 25 6 25 -22 0 -22 32 0 56 22 23 40 31 40 18z"/>
<path d="M4030 2615 c-16 -20 8 -31 27 -13 13 14 13 16 0 21 -9 3 -21 0 -27
-8z"/>
<path d="M3441 2598 c-14 -22 -8 -32 27 -43 16 -4 22 -2 22 8 0 9 6 17 13 20
6 2 -2 11 -19 20 -29 15 -31 14 -43 -5z m33 -4 c21 -8 9 -33 -15 -27 -20 5
-24 15 -12 26 8 8 8 8 27 1z"/>
<path d="M3521 2564 c0 -11 3 -14 6 -6 3 7 2 16 -1 19 -3 4 -6 -2 -5 -13z"/>
<path d="M3580 2531 c-10 -20 4 -41 17 -27 4 3 1 6 -6 6 -9 0 -9 5 -1 20 6 11
8 20 6 20 -3 0 -10 -9 -16 -19z"/>
<path d="M3610 2540 c0 -5 7 -10 15 -10 11 0 14 -7 9 -24 -7 -31 13 -44 34
-22 16 16 16 18 -3 32 -35 27 -55 36 -55 24z m55 -40 c3 -5 -1 -10 -9 -10 -9
0 -16 5 -16 10 0 6 4 10 9 10 6 0 13 -4 16 -10z"/>
<path d="M3749 2476 c7 -8 10 -20 6 -27 -5 -8 -10 -8 -14 -1 -4 7 -12 8 -21 2
-12 -7 -11 -10 5 -15 11 -4 28 -11 38 -16 13 -7 23 -6 33 2 21 17 18 25 -23
49 -23 13 -32 16 -24 6z m45 -41 c-4 -8 -10 -15 -15 -15 -5 0 -9 7 -9 15 0 8
7 15 15 15 9 0 12 -6 9 -15z"/>
<path d="M3372 2510 c-14 -23 -15 -30 -3 -30 5 0 12 10 16 23 4 13 8 17 12 10
2 -7 11 -13 19 -13 9 0 13 -4 9 -9 -3 -5 0 -13 6 -17 8 -4 7 -9 -2 -16 -11 -7
-9 -8 6 -6 32 5 28 31 -8 56 -40 27 -39 27 -55 2z"/>
<path d="M3920 2470 c0 -18 69 -45 81 -33 8 8 3 16 -19 27 -35 18 -62 21 -62
6z"/>
<path d="M3500 2440 c-9 -16 -8 -22 5 -26 20 -8 45 13 38 32 -8 20 -31 17 -43
-6z"/>
<path d="M3558 2419 c-17 -18 -17 -19 1 -28 19 -11 41 3 41 25 0 20 -24 22
-42 3z"/>
<path d="M3635 2380 c-10 -32 5 -43 26 -19 10 12 16 26 13 30 -10 16 -33 9
-39 -11z"/>
<path d="M3697 2363 c-10 -9 -8 -43 2 -43 5 0 14 7 21 15 17 21 -4 48 -23 28z"/>
<path d="M3290 2421 c-14 -27 -14 -27 30 -48 27 -14 42 -17 50 -9 18 18 11 30
-30 54 -38 22 -39 22 -50 3z m50 -16 c16 -20 8 -29 -19 -20 -12 4 -18 12 -14
21 7 18 17 18 33 -1z"/>
<path d="M3845 2407 c-14 -20 -14 -23 2 -35 10 -7 28 -10 40 -7 17 4 21 2 17
-10 -7 -18 7 -20 24 -3 18 18 15 23 -28 52 l-39 26 -16 -23z m35 -8 c0 -5 5
-7 11 -3 7 4 10 1 7 -7 -8 -23 -38 -23 -38 0 0 12 5 21 10 21 6 0 10 -5 10
-11z"/>
<path d="M4070 2405 c0 -19 58 -55 76 -48 22 8 17 20 -20 42 -40 25 -56 27
-56 6z"/>
<path d="M3430 2359 c-12 -22 -6 -39 15 -39 9 0 12 6 9 15 -5 11 1 15 20 15
20 0 26 -4 24 -17 -2 -10 -7 -21 -13 -25 -6 -5 -3 -8 6 -8 9 0 22 7 29 15 11
13 10 18 -6 30 -10 8 -31 19 -46 24 -23 8 -30 7 -38 -10z"/>
<path d="M3210 2335 c-13 -16 -7 -45 10 -45 5 0 10 9 10 20 0 11 5 20 11 20 5
0 7 5 4 10 -9 14 -21 12 -35 -5z"/>
<path d="M3259 2309 c-11 -7 -11 -9 0 -9 7 0 11 -6 8 -14 -8 -20 4 -28 20 -15
28 24 3 58 -28 38z"/>
<path d="M4002 2326 c-13 -28 2 -46 21 -27 8 8 8 11 -1 11 -7 0 -12 4 -12 10
0 5 7 7 16 3 11 -4 15 -2 12 7 -8 24 -24 21 -36 -4z"/>
<path d="M4058 2313 c17 -7 15 -23 -4 -23 -14 0 -14 -3 -4 -15 11 -14 15 -14
32 2 18 16 18 18 2 30 -10 7 -23 13 -28 12 -6 0 -5 -3 2 -6z"/>
<path d="M3776 2314 c-9 -24 -7 -34 8 -34 7 0 16 11 18 25 6 28 -16 36 -26 9z"/>
<path d="M3833 2281 c-10 -15 -9 -22 2 -31 11 -9 16 -7 25 10 19 35 -6 55 -27
21z"/>
<path d="M3566 2284 c-10 -26 -8 -30 30 -47 28 -14 39 -15 50 -6 20 17 17 39
-6 39 -11 0 -19 -6 -17 -12 1 -7 -5 -13 -13 -13 -10 0 -14 8 -12 28 3 30 -21
39 -32 11z"/>
<path d="M3691 2219 c-14 -23 -7 -39 16 -39 9 0 13 3 10 6 -3 4 -2 15 3 24 14
26 -13 33 -29 9z"/>
<path d="M3747 2180 c-3 -11 0 -23 5 -27 13 -7 40 26 32 38 -10 16 -32 9 -37
-11z"/>
<path d="M3351 2251 c-11 -20 -5 -31 17 -31 8 0 12 6 8 15 -3 9 0 15 10 15 8
0 12 5 9 10 -10 16 -33 12 -44 -9z"/>
<path d="M3401 2232 c-7 -13 -7 -22 1 -30 17 -17 26 -15 38 8 8 15 6 21 -9 30
-16 8 -22 7 -30 -8z"/>
<path d="M3921 2238 c-11 -28 7 -38 24 -14 8 10 19 14 31 10 17 -6 17 -5 -1 9
-28 23 -44 21 -54 -5z"/>
<path d="M4000 2204 c0 -11 -6 -14 -22 -9 -20 5 -21 5 -5 -5 14 -9 22 -9 33 0
16 14 19 30 4 30 -5 0 -10 -7 -10 -16z"/>
<path d="M3132 2239 c-14 -21 -8 -39 11 -39 8 0 7 3 -2 9 -7 5 -10 14 -7 20
10 16 36 13 36 -4 0 -8 6 -12 14 -9 7 3 16 -3 20 -12 8 -22 -1 -31 -16 -16 -7
7 -17 12 -22 12 -6 0 0 -7 13 -17 23 -15 25 -15 38 2 15 21 13 23 -37 53 -36
21 -36 21 -48 1z"/>
<path d="M3490 2190 c-14 -26 -4 -44 14 -27 8 6 12 16 9 20 -3 5 3 7 12 5 11
-2 19 -13 20 -25 1 -13 5 -26 8 -29 7 -7 37 14 37 25 0 5 -37 27 -82 48 -4 2
-12 -6 -18 -17z"/>
<path d="M3620 2125 c-14 -26 -5 -49 9 -26 5 7 13 11 19 7 6 -4 8 2 5 14 -8
31 -19 32 -33 5z"/>
<path d="M3680 2107 c0 -11 -8 -17 -22 -17 l-22 0 23 -16 c21 -15 24 -15 39 0
15 15 15 17 -1 33 -16 16 -17 16 -17 0z"/>
<path d="M3270 2151 c-13 -26 -13 -31 5 -31 8 0 15 7 15 15 0 8 5 15 10 15 6
0 10 5 10 10 0 18 -29 11 -40 -9z"/>
<path d="M3324 2125 c-9 -19 -9 -25 3 -29 30 -12 46 21 20 42 -9 8 -15 4 -23
-13z"/>
<path d="M3852 2146 c-10 -23 -8 -26 31 -45 37 -18 43 -19 56 -6 17 17 13 21
-40 53 l-36 22 -11 -24z m61 -23 c4 -3 5 -9 2 -14 -7 -11 -45 7 -45 21 0 8 20
5 43 -7z"/>
<path d="M3410 2095 c-18 -22 -7 -38 35 -54 32 -11 39 -11 46 0 14 23 11 28
-30 49 -34 17 -41 17 -51 5z m50 -25 c0 -5 -4 -10 -9 -10 -6 0 -13 5 -16 10
-3 6 1 10 9 10 9 0 16 -4 16 -10z"/>
<path d="M3763 2048 c-20 -26 -85 -139 -82 -142 29 -22 57 -36 71 -36 22 0
118 118 118 146 0 35 -85 60 -107 32z m23 -63 c-3 -8 -1 -15 4 -15 6 0 10 -5
10 -11 0 -5 -5 -7 -10 -4 -6 4 -18 1 -27 -7 -15 -11 -16 -11 -10 4 3 10 1 21
-6 25 -8 5 -3 10 13 14 14 4 27 7 29 8 2 1 1 -6 -3 -14z"/>
<path d="M3542 2028 c-21 -21 -13 -34 29 -52 34 -15 43 -16 50 -5 12 20 11 25
-8 40 -9 8 -14 9 -11 4 4 -6 3 -17 -1 -24 -7 -10 -13 -10 -30 -2 -26 14 -27
27 -3 40 14 9 14 10 2 11 -9 0 -21 -5 -28 -12z"/>
<path d="M4390 2535 c0 -8 4 -15 10 -15 5 0 7 7 4 15 -4 8 -8 15 -10 15 -2 0
-4 -7 -4 -15z"/>
<path d="M4321 2434 c0 -11 3 -14 6 -6 3 7 2 16 -1 19 -3 4 -6 -2 -5 -13z"/>
<path d="M4225 2300 c3 -5 8 -10 11 -10 2 0 4 5 4 10 0 6 -5 10 -11 10 -5 0
-7 -4 -4 -10z"/>
<path d="M4190 2256 c0 -9 5 -16 10 -16 6 0 10 4 10 9 0 6 -4 13 -10 16 -5 3
-10 -1 -10 -9z"/>
<path d="M4136 2177 c3 -10 9 -15 12 -12 3 3 0 11 -7 18 -10 9 -11 8 -5 -6z"/>
<path d="M4110 2161 c0 -5 5 -13 10 -16 6 -3 10 -2 10 4 0 5 -4 13 -10 16 -5
3 -10 2 -10 -4z"/>
<path d="M4070 2111 c0 -5 5 -13 10 -16 6 -3 10 -2 10 4 0 5 -4 13 -10 16 -5
3 -10 2 -10 -4z"/>
<path d="M4050 2080 c0 -5 5 -10 11 -10 5 0 7 5 4 10 -3 6 -8 10 -11 10 -2 0
-4 -4 -4 -10z"/>
<path d="M4030 2056 c0 -9 5 -16 10 -16 6 0 10 4 10 9 0 6 -4 13 -10 16 -5 3
-10 -1 -10 -9z"/>
<path d="M4010 2026 c0 -9 5 -16 10 -16 6 0 10 4 10 9 0 6 -4 13 -10 16 -5 3
-10 -1 -10 -9z"/>
<path d="M3216 2007 c3 -10 9 -15 12 -12 3 3 0 11 -7 18 -10 9 -11 8 -5 -6z"/>
<path d="M3986 1995 c4 -8 8 -15 10 -15 2 0 4 7 4 15 0 8 -4 15 -10 15 -5 0
-7 -7 -4 -15z"/>
<path d="M3306 1967 c3 -10 9 -15 12 -12 3 3 0 11 -7 18 -10 9 -11 8 -5 -6z"/>
<path d="M3946 1961 c-3 -5 1 -14 9 -21 12 -10 15 -10 15 3 0 19 -16 31 -24
18z"/>
<path d="M3927 1933 c-7 -11 10 -40 18 -31 4 4 3 14 -3 24 -5 9 -12 12 -15 7z"/>
<path d="M3910 1895 c0 -8 4 -15 10 -15 5 0 7 7 4 15 -4 8 -8 15 -10 15 -2 0
-4 -7 -4 -15z"/>
<path d="M3840 1800 c0 -5 5 -10 11 -10 5 0 7 5 4 10 -3 6 -8 10 -11 10 -2 0
-4 -4 -4 -10z"/>
<path d="M970 2940 c0 -5 4 -10 9 -10 6 0 13 5 16 10 3 6 -1 10 -9 10 -9 0
-16 -4 -16 -10z"/>
<path d="M1684 2979 c-40 -4 -89 -12 -110 -19 -265 -86 -474 -343 -509 -624
l-7 -59 65 46 c118 82 131 91 227 168 52 41 115 90 140 107 25 17 70 52 100
76 70 57 213 166 308 235 40 30 71 55 69 58 -10 9 -216 18 -283 12z m-153
-250 c25 -25 11 -54 -28 -62 -15 -3 -29 -4 -30 -4 -2 2 17 85 25 107 4 12 6
11 9 -3 3 -11 14 -28 24 -38z"/>
<path d="M1507 2713 c-12 -11 -8 -23 8 -23 8 0 15 7 15 15 0 16 -12 20 -23 8z"/>
<path d="M2033 2918 c71 -95 258 -341 302 -398 28 -36 77 -102 109 -148 32
-46 60 -81 63 -79 10 10 -18 161 -44 236 -60 179 -205 323 -401 400 l-53 21
24 -32z m287 -197 c24 -46 -8 -84 -51 -60 -25 13 -13 39 17 39 13 0 24 5 24
11 0 7 -10 9 -27 4 -23 -5 -25 -4 -14 9 18 22 38 20 51 -3z"/>
<path d="M2288 2683 c7 -3 16 -2 19 1 4 3 -2 6 -13 5 -11 0 -14 -3 -6 -6z"/>
<path d="M1936 2915 l-30 -24 25 -20 c35 -29 39 -26 39 24 0 25 -1 45 -2 45
-2 -1 -16 -12 -32 -25z"/>
<path d="M1987 2899 c-3 -24 -4 -45 -2 -47 2 -2 17 -1 34 3 33 7 33 13 -7 64
l-19 24 -6 -44z"/>
<path d="M1842 2847 c-23 -17 -100 -77 -170 -132 -71 -55 -149 -116 -175 -135
-26 -19 -89 -68 -140 -109 -50 -41 -108 -85 -129 -98 -35 -23 -36 -25 -22 -51
8 -15 14 -32 14 -38 0 -9 161 -10 720 -4 l35 0 0 68 c-3 431 -5 482 -18 482
-8 0 -24 11 -37 25 -13 14 -26 25 -29 25 -3 0 -25 -15 -49 -33z m-312 -457 c0
-5 6 -10 13 -10 18 0 49 -34 40 -43 -14 -15 -43 -7 -43 12 0 22 -29 36 -43 22
-13 -13 2 -34 19 -27 8 3 14 1 14 -3 0 -15 -32 -22 -46 -10 -18 15 -18 34 2
53 17 18 44 21 44 6z m-233 -47 c-2 -13 2 -24 10 -27 8 -3 11 -11 8 -17 -4 -6
-13 -8 -20 -5 -7 2 -17 0 -23 -6 -15 -15 -42 8 -42 36 0 29 13 41 45 41 22 0
26 -4 22 -22z"/>
<path d="M1250 2324 c0 -22 2 -25 15 -14 12 10 13 16 4 26 -16 20 -19 18 -19
-12z"/>
<path d="M2022 2835 c-41 -9 -43 -11 -38 -38 3 -16 6 -118 6 -226 l0 -196 32
-15 c18 -8 39 -29 47 -47 l16 -31 198 -1 199 -2 -63 91 c-34 50 -91 128 -126
173 -95 121 -208 270 -219 287 -7 12 -17 13 -52 5z m-2 -227 l0 -22 16 22 c24
35 38 26 15 -10 -11 -18 -26 -33 -33 -33 -7 0 -14 14 -16 33 -2 18 1 32 7 32
6 0 11 -10 11 -22z m60 -38 c0 -11 -7 -20 -15 -20 -8 0 -15 9 -15 20 0 11 7
20 15 20 8 0 15 -9 15 -20z m158 -198 c2 -7 -2 -11 -9 -10 -7 2 -15 -5 -17
-16 -3 -12 0 -16 8 -11 8 5 11 3 8 -5 -7 -21 -27 -24 -34 -5 -4 9 -1 28 5 41
11 26 31 28 39 6z m45 -14 c6 -21 -4 -48 -19 -48 -20 0 -26 17 -14 40 12 23
26 26 33 8z"/>
<path d="M1990 2320 c0 -39 1 -40 35 -40 50 0 42 39 -12 69 -22 11 -23 10 -23
-29z m38 -11 c-2 -6 -8 -10 -13 -10 -5 0 -11 4 -13 10 -2 6 4 11 13 11 9 0 15
-5 13 -11z"/>
<path d="M1125 2302 c-35 -24 -42 -33 -25 -29 14 4 41 7 61 7 33 0 36 2 31 25
-2 14 -7 27 -11 29 -3 2 -28 -12 -56 -32z"/>
<path d="M2510 2903 c0 -6 -3 -18 -6 -27 -4 -11 -1 -16 10 -16 9 0 16 6 16 13
0 16 -20 46 -20 30z"/>
<path d="M590 2560 c0 -8 5 -22 10 -30 9 -13 10 -13 10 0 0 8 -5 22 -10 30 -9
13 -10 13 -10 0z"/>
<path d="M986 2261 c-4 -7 -5 -15 -2 -18 9 -9 19 4 14 18 -4 11 -6 11 -12 0z"/>
<path d="M2565 2280 c-4 -6 5 -10 20 -10 15 0 24 4 20 10 -3 6 -12 10 -20 10
-8 0 -17 -4 -20 -10z"/>
<path d="M2560 2235 c0 -9 9 -15 25 -15 16 0 25 6 25 15 0 9 -9 15 -25 15 -16
0 -25 -6 -25 -15z"/>
<path d="M4824 1611 c-24 -7 -32 11 139 -273 90 -150 83 -98 -13 89 -50 98
-94 181 -98 184 -4 3 -17 3 -28 0z"/>
<path d="M4882 1603 c9 -10 54 -92 100 -183 69 -136 88 -166 107 -168 l24 -4
-22 34 c-12 18 -51 94 -87 168 -36 74 -69 142 -73 150 -5 8 -21 17 -37 18 -27
4 -28 3 -12 -15z"/>
<path d="M5016 1476 c100 -198 119 -226 149 -226 14 0 25 2 25 4 0 2 -31 55
-68 117 -37 63 -83 141 -102 174 -18 33 -34 61 -34 61 -1 1 -11 4 -22 8 -18 6
-10 -16 52 -138z"/>
<path d="M4748 1588 c-16 -5 -28 -13 -28 -16 0 -4 34 -57 75 -117 41 -61 87
-131 102 -157 24 -42 32 -48 61 -48 l34 0 -23 38 c-13 20 -39 62 -59 92 -20
30 -51 82 -69 115 -49 93 -61 104 -93 93z"/>
<path d="M5025 1578 c29 -41 124 -202 157 -265 21 -42 38 -63 50 -63 10 0 18
2 18 5 0 3 -23 41 -50 85 -28 44 -58 99 -67 123 -24 62 -60 113 -89 126 -35
16 -37 14 -19 -11z"/>
<path d="M4672 1553 c-9 -3 -7 -13 9 -34 28 -40 149 -251 149 -261 0 -13 47
-9 53 5 3 7 -15 40 -38 72 -24 33 -66 97 -94 143 -29 45 -55 82 -59 81 -4 0
-13 -3 -20 -6z"/>
<path d="M5165 1457 c59 -122 115 -207 136 -207 14 0 8 15 -32 85 -27 47 -49
88 -49 91 0 9 -55 89 -70 101 -28 23 -26 13 15 -70z"/>
<path d="M4617 1515 c-18 -13 -15 -18 40 -93 32 -44 70 -101 85 -126 18 -30
34 -46 47 -46 18 0 16 7 -18 68 -69 126 -122 212 -129 212 -4 0 -15 -7 -25
-15z"/>
<path d="M4570 1480 c-16 -10 -15 -13 60 -129 50 -77 70 -100 88 -100 25 -1
28 6 8 28 -7 9 -42 59 -78 112 -45 66 -69 94 -78 89z"/>
<path d="M5220 1477 c0 -8 75 -141 104 -184 17 -26 36 -43 48 -43 17 0 16 4
-10 43 -16 23 -41 65 -55 94 -15 28 -40 61 -57 73 -16 12 -30 19 -30 17z"/>
<path d="M4522 1441 c-10 -6 -8 -17 12 -47 61 -96 100 -144 116 -144 14 0 2
23 -47 98 -36 53 -66 98 -67 99 -1 1 -7 -2 -14 -6z"/>
<path d="M4483 1409 c-8 -8 -4 -22 17 -51 16 -22 34 -55 40 -74 9 -26 17 -34
36 -34 l24 0 -33 53 c-19 28 -43 67 -54 84 -14 24 -22 30 -30 22z"/>
<path d="M5340 1383 c0 -20 74 -133 86 -133 13 0 13 5 -4 33 -10 17 -27 46
-38 64 -16 29 -44 52 -44 36z"/>
<path d="M4442 1367 c-9 -10 -3 -26 24 -65 19 -29 41 -52 49 -52 19 0 19 0
-11 59 -33 62 -47 76 -62 58z"/>
<path d="M4397 1333 c-8 -13 43 -83 60 -83 20 0 16 11 -21 54 -18 21 -36 34
-39 29z"/>
<path d="M5443 1285 c12 -19 29 -34 36 -35 9 0 1 14 -19 35 -19 19 -35 35 -37
35 -1 0 8 -16 20 -35z"/>
<path d="M4355 1300 c-9 -14 18 -50 38 -50 17 0 17 1 0 30 -18 31 -28 37 -38
20z"/>
<path d="M4315 1260 c-3 -5 3 -10 15 -10 12 0 18 5 15 10 -3 6 -10 10 -15 10
-5 0 -12 -4 -15 -10z"/>
<path d="M2373 1753 c-26 -3 -33 -9 -33 -26 0 -19 -1 -20 -13 -3 -11 16 -18
16 -54 7 -35 -10 -40 -14 -36 -34 5 -21 5 -21 -9 -4 -12 16 -18 17 -41 6 -22
-10 -26 -17 -21 -38 5 -25 5 -25 -10 -7 -14 18 -16 18 -43 -2 -15 -11 -46 -39
-68 -62 -36 -37 -38 -42 -22 -51 25 -14 22 -32 -4 -19 -11 7 -22 10 -23 8 -38
-50 -43 -68 -22 -68 8 0 18 -5 22 -11 5 -8 -1 -10 -19 -5 -23 5 -27 2 -37 -30
-11 -31 -10 -37 7 -50 17 -15 17 -15 -4 -11 -27 6 -29 3 -38 -46 -7 -34 -5
-37 16 -38 l24 -1 -25 -7 c-20 -5 -26 -14 -28 -43 -3 -29 1 -37 20 -43 l23 -8
-24 -4 c-20 -4 -22 -9 -17 -35 3 -17 6 -34 6 -39 0 -5 12 -9 28 -10 26 0 26
-1 5 -9 -26 -10 -28 -23 -12 -68 l10 -30 57 25 c31 14 59 27 60 29 2 1 -4 34
-13 73 -26 104 -17 190 27 283 109 227 385 315 598 191 61 -36 148 -120 171
-165 11 -21 22 -38 25 -38 5 0 106 50 113 56 2 2 -2 17 -9 34 -11 28 -16 30
-44 25 -31 -5 -31 -5 -9 11 l22 16 -26 35 c-25 32 -28 34 -40 17 -7 -10 -16
-15 -19 -11 -4 4 -1 14 7 23 12 14 10 19 -15 41 -27 23 -29 23 -47 7 -20 -18
-27 -6 -8 13 9 9 3 17 -22 32 -42 26 -43 26 -58 -1 -11 -22 -11 -21 -7 8 4 27
1 32 -30 43 -20 7 -37 11 -38 9 -2 -1 -9 -12 -15 -23 -12 -19 -12 -19 -8 2 6
26 4 28 -40 38 -26 5 -33 3 -33 -9 0 -9 -5 -16 -11 -16 -6 0 -9 6 -6 14 4 9
-3 16 -16 20 -41 11 -57 7 -57 -14 0 -11 -4 -20 -10 -20 -5 0 -10 9 -10 20 0
11 -3 19 -7 18 -5 0 -23 -3 -40 -5z m-278 -154 c11 -17 -1 -21 -15 -4 -8 9 -8
15 -2 15 6 0 14 -5 17 -11z"/>
<path d="M2386 1609 c-79 -13 -188 -72 -240 -130 -69 -77 -100 -149 -105 -243
-3 -82 15 -196 32 -196 5 0 6 10 2 23 -3 12 -9 54 -12 93 -12 152 47 278 170
365 167 119 359 99 507 -53 32 -32 63 -72 70 -88 7 -17 16 -28 20 -25 15 9
-39 91 -89 138 -97 91 -235 136 -355 116z"/>
<path d="M2373 1565 c-85 -24 -115 -40 -170 -89 -94 -85 -146 -232 -124 -351
6 -33 15 -63 20 -68 6 -6 55 11 123 41 62 27 134 57 160 67 28 10 48 25 51 36
4 14 13 19 34 17 16 -1 45 4 64 11 48 19 263 113 268 117 12 11 -30 72 -85
123 -98 93 -226 129 -341 96z"/>
<path d="M2915 1370 c-66 -26 -169 -69 -230 -95 -102 -43 -173 -74 -410 -175
-49 -21 -144 -61 -210 -90 -66 -28 -132 -56 -147 -61 -25 -10 -25 -12 -16 -47
8 -30 33 -88 43 -100 1 -1 9 0 18 4 13 5 14 10 6 26 -6 10 -8 24 -6 31 2 7 10
0 17 -16 15 -31 36 -31 33 2 -3 24 15 29 23 7 3 -8 12 -12 21 -9 11 4 13 15 9
37 -5 31 -5 31 11 9 20 -29 47 -31 38 -3 -7 23 10 28 19 5 11 -28 35 -5 30 28
l-5 32 16 -27 c20 -35 49 -28 41 11 -6 24 -5 25 8 7 21 -26 45 -14 38 20 -3
19 -1 25 7 20 6 -4 11 -14 11 -22 0 -9 7 -14 18 -12 10 2 16 11 14 21 -2 9 2
17 8 17 5 0 10 -4 10 -10 0 -5 7 -10 16 -10 12 0 14 7 9 30 -8 36 10 41 19 5
4 -17 11 -22 22 -18 11 4 14 13 10 29 -4 13 -2 24 3 24 5 0 11 -9 14 -20 9
-34 39 -14 32 21 -8 33 10 40 20 8 9 -27 31 -18 27 12 -2 23 -2 23 12 5 9 -10
22 -16 30 -13 13 5 14 11 4 34 -7 15 -18 35 -25 44 -14 17 -17 39 -5 39 16 0
33 -18 31 -31 -1 -8 4 -27 11 -42 16 -33 46 -32 43 1 -3 26 5 28 22 5 17 -23
38 -8 24 18 -12 24 -2 40 11 19 5 -8 11 -19 13 -23 1 -5 10 -5 20 -1 12 4 16
13 12 28 -6 20 -5 20 8 3 9 -10 21 -15 31 -11 15 6 15 8 1 31 -9 14 -13 28 -9
31 4 4 9 2 11 -4 18 -50 63 -55 56 -6 l-5 27 19 -22 c20 -25 49 -18 33 7 -6 8
-10 22 -9 30 0 8 7 2 15 -13 10 -19 21 -27 31 -23 8 3 17 6 19 6 3 0 0 9 -6
20 -13 25 5 27 19 3 16 -29 36 -2 21 27 -6 12 -9 24 -7 27 3 2 11 -6 18 -19
16 -31 14 -29 32 -22 13 5 14 10 6 25 -13 25 9 26 27 2 18 -26 40 -4 25 25
-13 25 -14 32 -2 32 5 0 12 -11 15 -25 5 -21 26 -36 26 -19 0 15 -32 130 -38
136 -4 3 -61 -15 -127 -42z m110 -11 c9 -27 -14 -44 -34 -25 -11 12 -11 17 0
30 19 21 26 20 34 -5z m-87 -44 c5 -22 -18 -37 -35 -23 -17 13 -17 35 0 41 19
8 32 2 35 -18z m-100 -43 c2 -12 0 -22 -5 -22 -12 0 -33 37 -26 44 12 12 28 0
31 -22z m-101 -37 c9 -20 8 -25 -3 -25 -15 0 -37 34 -27 44 11 11 18 7 30 -19z
m-102 -36 c4 -11 4 -23 0 -27 -7 -7 -25 17 -25 36 0 20 18 14 25 -9z m-210
-79 c-3 -5 1 -10 9 -10 9 0 16 -7 16 -15 0 -18 -12 -19 -28 -3 -15 15 -16 38
-1 38 5 0 7 -4 4 -10z m-75 -62 c0 -4 -7 -8 -15 -8 -10 0 -15 10 -15 28 1 26
1 26 15 8 8 -11 15 -23 15 -28z m-106 -31 c8 -12 7 -20 -3 -29 -12 -11 -13
-10 -8 5 4 11 1 17 -8 17 -8 0 -15 7 -15 16 0 19 20 14 34 -9z m-104 -46 c13
-25 13 -31 -2 -31 -7 0 -18 11 -25 25 -9 20 -8 25 3 25 7 0 18 -9 24 -19z
m-90 -53 c0 -5 -9 -4 -20 2 -21 11 -25 22 -13 34 8 7 33 -21 33 -36z m-83 -32
c-6 -17 -27 -18 -33 -2 -3 9 -3 24 1 34 6 16 7 16 21 -3 8 -10 13 -24 11 -29z"/>
<path d="M1040 1664 c-161 -20 -220 -42 -220 -85 0 -45 141 -79 334 -79 106 0
171 9 263 35 92 27 78 86 -25 100 -26 4 -63 11 -82 16 -40 11 -217 19 -270 13z"/>
<path d="M821 1423 c1 -65 -2 -213 -6 -330 l-8 -212 24 6 c23 6 23 6 7 -14
-50 -55 -2 -87 176 -118 155 -26 302 -14 411 34 56 25 65 44 35 77 -23 23 -16
36 7 13 19 -19 27 147 17 356 -5 104 -9 215 -9 245 l0 55 -70 -24 c-60 -21
-93 -25 -229 -29 -171 -4 -253 6 -319 39 l-38 20 2 -118z m277 -475 c-5 -15
-58 -24 -58 -9 0 9 20 17 48 20 8 0 12 -5 10 -11z m92 2 c0 -5 -11 -10 -25
-10 -14 0 -25 5 -25 10 0 6 11 10 25 10 14 0 25 -4 25 -10z m71 0 c5 0 9 -4 9
-10 0 -12 -47 -13 -54 -1 -8 12 6 22 22 16 7 -3 18 -5 23 -5z m-261 -20 c0 -5
-10 -10 -22 -10 -19 0 -20 2 -8 10 19 13 30 13 30 0z m340 0 c12 -8 9 -10 -12
-10 -15 0 -30 5 -33 10 -8 13 25 13 45 0z m-425 -19 c-6 -5 -21 -12 -35 -15
-24 -7 -24 -6 -6 8 21 17 57 23 41 7z m493 3 c12 -4 22 -11 22 -16 0 -10 -39
-1 -54 13 -12 11 -1 11 32 3z"/>
<path d="M4332 1139 c3 -37 21 -46 26 -13 2 11 -4 27 -13 34 -15 12 -16 10
-13 -21z"/>
<path d="M4087 552 c-23 -25 -21 -49 3 -57 39 -12 66 35 38 63 -16 16 -22 15
-41 -6z"/>
<path d="M2231 563 c-6 -12 -11 -34 -11 -48 0 -32 25 -31 47 1 12 19 11 24 -5
44 l-19 24 -12 -21z"/>
<path d="M1376 359 c-24 -19 -27 -39 -6 -39 12 0 45 49 38 55 -3 3 -17 -4 -32
-16z"/>
<path d="M1762 283 c4 -36 33 -39 33 -3 0 16 -6 26 -18 28 -15 3 -18 -2 -15
-25z"/>
<path d="M5535 2988 c-49 -9 -151 -22 -225 -27 -74 -6 -174 -18 -222 -27 l-88
-16 24 -19 c14 -11 85 -48 158 -83 l133 -64 155 9 c146 9 425 50 456 67 10 6
-13 23 -78 57 -51 27 -115 61 -141 77 -48 28 -68 34 -66 21 4 -26 -5 -32 -10
-8 l-6 30 -90 -17z m102 -100 c-2 -13 -4 -5 -4 17 -1 22 1 32 4 23 2 -10 2
-28 0 -40z m0 -95 c-3 -10 -5 -2 -5 17 0 19 2 27 5 18 2 -10 2 -26 0 -35z"/>
<path d="M4971 2561 l-3 -349 26 5 c20 4 26 1 26 -12 0 -11 -5 -15 -15 -11 -8
3 -15 3 -15 0 0 -3 35 -21 78 -41 42 -19 102 -50 132 -68 105 -63 95 -94 98
303 l3 347 -53 27 c-29 15 -83 40 -121 57 -37 16 -84 44 -105 60 -20 17 -39
31 -42 31 -3 0 -7 -157 -9 -349z m304 -321 c-3 -5 -20 -10 -36 -10 -18 0 -28
4 -24 10 3 6 20 10 36 10 18 0 28 -4 24 -10z m-85 -9 c0 -11 -59 -26 -67 -17
-6 6 33 24 55 25 6 1 12 -3 12 -8z m-80 -10 c0 -11 -59 -25 -68 -16 -3 3 0 10
8 15 19 12 60 13 60 1z"/>
<path d="M5890 2801 c-14 -4 -76 -16 -137 -27 l-113 -18 -1 -31 -2 -30 -4 29
c-4 28 -6 28 -51 22 -26 -4 -95 -9 -154 -13 l-108 -6 0 -238 c0 -232 0 -237
20 -232 11 3 20 0 20 -6 0 -6 -8 -11 -19 -11 -23 0 -33 -52 -30 -153 l2 -67
30 0 c17 0 72 7 121 15 50 8 177 26 281 41 105 14 193 28 197 30 4 3 5 11 1
19 -3 10 -1 13 8 10 11 -4 14 16 14 107 0 62 4 172 9 244 5 72 5 174 1 227 -7
97 -7 97 -33 96 -15 0 -38 -4 -52 -8z m-253 -188 c-3 -10 -5 -2 -5 17 0 19 2
27 5 18 2 -10 2 -26 0 -35z m3 -74 c0 -17 -4 -28 -10 -24 -5 3 -10 17 -10 31
0 13 5 24 10 24 6 0 10 -14 10 -31z m0 -84 c0 -14 -4 -25 -10 -25 -5 0 -10 11
-10 25 0 14 5 25 10 25 6 0 10 -11 10 -25z m-3 -102 c-3 -10 -5 -2 -5 17 0 19
2 27 5 18 2 -10 2 -26 0 -35z m33 -73 c0 -3 -23 -6 -50 -7 -28 -2 -50 2 -50 7
0 6 9 10 20 10 10 0 25 6 32 13 10 11 15 11 30 -2 10 -8 18 -18 18 -21z m-130
-10 c-20 -13 -73 -13 -65 0 3 6 23 10 43 10 28 0 33 -3 22 -10z m-80 -10 c0
-5 -18 -10 -40 -10 -22 0 -40 5 -40 10 0 6 18 10 40 10 22 0 40 -4 40 -10z
m258 -2 c19 -19 14 -29 -8 -16 -20 13 -27 28 -12 28 4 0 13 -5 20 -12z m73
-56 c-13 -4 -41 16 -41 29 0 5 12 2 26 -8 15 -9 21 -19 15 -21z m72 -29 c-15
-5 -53 15 -53 28 0 5 15 2 33 -7 17 -10 27 -19 20 -21z m57 -23 c12 -8 11 -10
-7 -10 -12 0 -25 5 -28 10 -8 13 15 13 35 0z"/>
<path d="M0 2784 c0 -8 5 -12 10 -9 6 4 8 11 5 16 -9 14 -15 11 -15 -7z"/>
<path d="M17 2756 c-9 -7 -17 -19 -17 -27 0 -9 8 -6 22 9 25 24 22 37 -5 18z"/>
<path d="M23 2717 c-22 -21 -23 -31 -23 -154 l0 -132 183 -179 c100 -98 257
-252 348 -341 l166 -162 86 92 c74 79 85 95 76 112 -10 18 -12 18 -41 -9 -16
-16 -37 -42 -45 -58 -11 -22 -17 -26 -26 -16 -9 9 -7 16 10 29 12 10 20 21 17
24 -3 2 9 16 26 31 17 14 28 31 25 37 -5 7 -13 4 -26 -7 -25 -23 -37 -10 -14
16 14 16 15 20 4 20 -8 0 -20 -5 -27 -12 -17 -17 -27 -2 -12 17 17 20 5 32
-15 15 -21 -17 -30 -6 -11 13 27 27 3 28 -26 0 -15 -14 -31 -23 -35 -19 -4 4
6 18 22 31 17 13 27 27 23 31 -4 4 -14 1 -23 -6 -19 -16 -32 -6 -17 13 15 18
3 30 -15 15 -19 -15 -29 -2 -13 17 17 20 5 32 -15 15 -20 -17 -32 -5 -15 15
19 23 0 18 -27 -7 -31 -29 -42 -14 -13 17 26 27 21 46 -6 24 -16 -13 -17 -11
-10 14 6 26 -6 38 -19 17 -3 -5 -11 -10 -17 -10 -6 0 -3 9 6 19 20 23 4 40
-20 20 -18 -15 -32 -3 -16 13 26 26 10 30 -16 5 -16 -15 -31 -25 -35 -21 -3 3
6 16 21 29 15 13 24 27 19 31 -4 4 -13 2 -19 -4 -20 -20 -32 -13 -14 7 20 23
4 40 -20 20 -19 -16 -30 -4 -14 16 15 19 5 34 -12 17 -18 -18 -33 -15 -18 3 7
9 11 17 9 19 -6 7 -56 -39 -68 -63 -14 -26 -27 -27 -40 -2 -13 23 13 64 27 43
6 -9 16 -4 36 17 32 33 27 64 -5 35 -20 -18 -27 -6 -7 14 16 16 2 28 -16 13
-9 -8 -16 -8 -20 -2 -4 5 -2 12 4 16 5 3 10 13 10 22 0 14 -3 14 -20 -2 -25
-23 -39 -12 -17 13 10 10 14 21 11 25 -3 3 -29 -16 -57 -44 -37 -36 -53 -47
-61 -38 -8 8 -6 14 8 23 34 20 86 68 86 78 0 6 -7 5 -15 -2 -19 -16 -32 -5
-17 13 15 18 3 30 -15 15 -7 -6 -16 -8 -20 -5 -3 4 -1 13 5 20 15 18 3 30 -15
15 -19 -16 -28 -2 -12 19 7 10 -1 5 -19 -11 -40 -37 -55 -26 -18 13 15 16 23
32 18 35 -5 3 -15 -1 -22 -9 -7 -8 -17 -12 -22 -9 -5 3 -3 13 6 23 21 23 8 36
-16 14 -24 -21 -36 -9 -15 15 23 25 10 35 -19 15 -28 -18 -32 -8 -7 19 24 27
-6 23 -34 -5z m80 -143 c7 -8 -17 -34 -32 -34 -12 0 -15 23 -4 33 8 9 28 9 36
1z m327 -329 c9 -11 9 -18 -2 -34 -14 -19 -15 -19 -29 -3 -12 14 -13 22 -5 35
13 21 20 21 36 2z m97 -99 c-4 -9 1 -16 13 -18 16 -3 17 -5 5 -21 -13 -18 -14
-18 -33 1 -14 14 -17 24 -10 36 11 20 32 21 25 2z m129 -126 c12 0 12 -3 2
-20 -15 -23 -43 -28 -35 -6 4 10 1 13 -9 9 -19 -7 -18 6 4 30 15 17 17 17 20
3 2 -9 10 -16 18 -16z m104 -98 c0 -11 -22 -32 -32 -32 -5 0 -4 9 2 20 11 20
30 28 30 12z"/>
<path d="M5857 1723 c-4 -3 -7 -17 -7 -30 0 -18 6 -23 24 -23 30 0 40 13 31
40 -6 19 -35 27 -48 13z"/>
<path d="M0 1500 c0 -5 5 -10 11 -10 5 0 7 5 4 10 -3 6 -8 10 -11 10 -2 0 -4
-4 -4 -10z"/>
<path d="M0 1350 c0 -19 3 -21 12 -12 9 9 9 15 0 24 -9 9 -12 7 -12 -12z"/>
<path d="M5961 1351 c-6 -11 -11 -38 -11 -60 0 -37 2 -41 25 -41 25 0 26 2 23
57 -3 59 -19 78 -37 44z"/>
<path d="M5960 1163 c0 -46 -8 -59 -41 -72 -33 -12 -39 -40 -39 -186 0 -127
-1 -125 76 -125 l44 0 -1 140 c-2 139 -2 140 -25 140 -12 0 -26 5 -29 10 -4 6
7 10 24 10 l31 0 0 60 c0 53 -2 60 -20 60 -16 0 -20 -7 -20 -37z m0 -162 c14
-28 13 -39 -9 -51 -38 -20 -71 13 -51 51 14 25 46 25 60 0z"/>
<path d="M5910 976 c0 -2 7 -7 16 -10 8 -3 12 -2 9 4 -6 10 -25 14 -25 6z"/>
<path d="M6 1183 c-3 -3 -6 -23 -6 -44 0 -29 4 -38 22 -42 13 -4 26 -1 30 6
13 20 9 27 -13 27 -17 0 -20 4 -15 24 6 24 -5 42 -18 29z"/>
<path d="M4013 1054 c-7 -3 -9 -12 -6 -20 3 -8 0 -14 -6 -14 -6 0 -11 4 -11
10 0 5 -7 7 -15 4 -11 -5 -12 -11 -4 -26 6 -10 8 -24 6 -31 -3 -7 -10 1 -16
16 -12 31 -38 32 -33 1 2 -18 1 -18 -11 -2 -19 24 -43 8 -28 -20 14 -25 14
-32 1 -32 -5 0 -13 12 -16 26 -4 17 -11 23 -21 20 -8 -3 -16 -6 -18 -6 -2 0
-1 -10 2 -22 4 -21 3 -21 -7 -5 -16 24 -33 11 -19 -14 6 -12 8 -23 5 -26 -8
-8 -26 7 -26 23 0 18 -19 18 -26 0 -3 -8 -13 -12 -26 -8 -19 5 -20 2 -15 -26
8 -38 -5 -42 -21 -6 -13 27 -31 24 -33 -4 0 -11 -3 -12 -6 -4 -2 6 -11 12 -20
12 -11 0 -13 -7 -8 -30 7 -34 -10 -42 -20 -10 -9 28 -34 26 -28 -2 4 -21 3
-21 -9 -6 -17 20 -41 10 -28 -12 12 -19 12 -30 1 -30 -5 0 -13 9 -16 20 -8 26
-23 25 -35 -2 -5 -13 -9 -17 -9 -10 -1 6 -10 12 -21 12 -23 0 -23 0 -10 -34
13 -34 -6 -35 -22 -1 -13 29 -28 24 -21 -8 4 -20 3 -21 -10 -4 -21 25 -41 23
-27 -4 6 -11 9 -25 7 -32 -2 -7 -10 0 -17 15 -15 31 -40 27 -33 -5 4 -21 4
-21 -11 -3 -19 23 -40 12 -26 -14 12 -23 13 -30 1 -30 -5 0 -13 9 -16 20 -3
11 -13 20 -22 20 -9 0 -13 -6 -9 -15 6 -17 -9 -21 -19 -5 -12 20 -26 -2 -20
-33 l6 -32 -16 28 c-18 30 -35 36 -35 10 0 -13 -3 -14 -11 -6 -19 19 -40 4
-28 -19 6 -10 8 -24 6 -31 -2 -7 -10 0 -17 16 -16 33 -30 35 -30 5 -1 -20 -2
-21 -13 -7 -18 23 -40 13 -26 -13 6 -11 8 -22 6 -25 -3 -2 -10 5 -17 16 -12
24 -43 29 -34 6 4 -8 2 -15 -4 -15 -6 0 -12 5 -14 12 -2 6 -10 8 -16 4 -9 -5
-9 -13 -1 -27 6 -12 8 -23 5 -26 -3 -3 -10 6 -17 20 -13 30 -43 26 -34 -4 4
-11 2 -19 -4 -19 -6 0 -11 7 -11 16 0 9 -6 14 -12 11 -14 -5 -14 -11 -3 -40 4
-9 3 -17 -3 -17 -5 0 -12 9 -15 21 -7 24 -33 20 -29 -5 2 -9 -2 -16 -8 -16 -5
0 -10 5 -10 10 0 6 -7 10 -16 10 -10 0 -14 -5 -10 -15 3 -8 9 -22 12 -30 3 -8
1 -15 -4 -15 -6 0 -14 9 -17 20 -8 25 -35 27 -36 3 0 -11 -3 -13 -6 -5 -2 6
-12 12 -20 12 -10 0 -13 -5 -8 -17 4 -10 10 -27 13 -38 5 -18 4 -18 -11 -6 -9
7 -17 20 -17 27 0 8 -6 14 -14 14 -9 0 -12 -7 -9 -19 6 -24 252 -148 528 -266
55 -23 138 -59 185 -80 142 -61 210 -83 210 -66 0 6 53 122 119 258 65 136
130 284 146 328 40 118 92 240 121 286 29 46 47 89 36 88 -4 0 -12 -3 -19 -5z
m-433 -456 c0 -11 -22 -72 -49 -136 -27 -65 -54 -134 -61 -155 -6 -21 -23 -45
-37 -54 -23 -16 -27 -15 -86 14 -34 17 -105 50 -157 73 -122 53 -124 54 -128
72 -3 18 105 69 278 132 69 24 145 54 169 64 49 23 71 19 71 -10z"/>
<path d="M3495 580 c-22 -11 -113 -46 -201 -79 -89 -32 -174 -66 -189 -74
l-28 -14 59 -28 c32 -15 88 -38 124 -52 36 -13 82 -35 104 -49 37 -25 39 -25
56 -7 9 10 32 54 50 98 18 44 46 109 61 144 16 35 29 67 29 72 0 14 -21 10
-65 -11z"/>
<path d="M436 923 c-3 -10 -10 -47 -15 -83 -6 -36 -22 -135 -35 -220 -14 -85
-32 -231 -41 -325 -17 -189 -24 -251 -32 -279 -5 -18 -1 -19 53 -12 32 4 60 8
62 10 5 5 22 919 18 924 -2 2 -7 -5 -10 -15z"/>
<path d="M467 860 c-4 -41 -9 -252 -11 -467 l-5 -393 64 0 64 0 -5 73 c-14
183 -86 820 -98 852 -2 6 -6 -24 -9 -65z"/>
<path d="M5880 756 c0 -8 4 -17 9 -20 5 -4 7 3 4 14 -6 23 -13 26 -13 6z"/>
<path d="M5903 733 c-2 -72 -4 -83 -14 -83 -6 0 -9 6 -6 13 3 8 1 20 -4 28 -6
10 -9 4 -9 -18 0 -18 5 -33 10 -33 6 0 10 -7 10 -16 0 -8 -4 -13 -9 -10 -15
10 -20 -20 -26 -137 l-6 -112 35 120 c19 66 40 147 46 180 6 33 13 68 16 78 4
13 0 17 -18 17 -19 0 -24 -5 -25 -27z"/>
<path d="M5980 668 c0 -51 -7 -133 -14 -183 -34 -214 -45 -296 -50 -387 l-6
-98 45 0 45 0 0 380 c0 247 -4 380 -10 380 -6 0 -10 -38 -10 -92z"/>
<path d="M5927 578 c-30 -109 -51 -205 -67 -302 -9 -54 -8 -61 11 -74 16 -11
19 -23 18 -63 -3 -51 -7 -57 -27 -37 -7 7 -12 8 -12 4 0 -4 10 -16 23 -26 12
-10 18 -22 14 -27 -5 -4 -15 1 -23 11 -11 16 -14 17 -14 4 0 -9 7 -18 15 -22
8 -3 15 -16 16 -28 2 -53 16 31 23 133 4 57 18 186 32 287 32 233 29 280 -9
140z"/>
<path d="M2650 516 c0 -2 7 -7 16 -10 8 -3 12 -2 9 4 -6 10 -25 14 -25 6z"/>
<path d="M4624 496 c-85 -31 -124 -58 -187 -126 -37 -40 -64 -81 -84 -132 -38
-91 -47 -128 -32 -128 6 0 1 -15 -10 -34 -12 -18 -21 -43 -21 -55 l0 -21 485
0 485 0 0 28 c0 15 -7 37 -15 49 -10 15 -12 22 -4 25 19 6 -27 129 -73 195
-107 150 -240 224 -402 222 -58 0 -98 -6 -142 -23z m315 -252 c11 -10 -8 -13
-42 -7 -20 3 -34 10 -31 15 5 8 62 2 73 -8z m-281 -12 c2 -8 -10 -12 -37 -12
-46 0 -56 16 -13 23 36 5 45 3 50 -11z m82 8 c0 -5 -13 -10 -30 -10 -16 0 -30
5 -30 10 0 6 14 10 30 10 17 0 30 -4 30 -10z m90 0 c0 -6 -12 -8 -26 -6 -39 7
-42 16 -6 16 18 0 32 -5 32 -10z m179 -9 c7 -5 9 -11 5 -14 -13 -8 -64 4 -64
14 0 11 41 11 59 0z m-451 -13 c-3 -7 -20 -14 -39 -16 -50 -5 -19 19 34 27 5
0 7 -5 5 -11z m537 -19 c5 -6 3 -9 -7 -9 -24 0 -48 11 -48 22 0 10 39 1 55
-13z m-630 -8 c-16 -14 -55 -23 -55 -12 0 9 20 17 50 20 8 1 10 -2 5 -8z m711
-38 c-8 -8 -56 17 -56 29 0 5 14 1 31 -7 17 -9 28 -19 25 -22z m-786 8 c0 -12
-50 -44 -58 -36 -4 3 4 15 18 25 27 21 40 25 40 11z m845 -41 c7 -11 -6 -13
-29 -4 -9 3 -16 13 -16 20 0 11 4 12 19 4 11 -5 23 -15 26 -20z"/>
<path d="M2630 497 c0 -15 55 -157 88 -227 22 -47 56 -127 77 -177 l38 -93
104 0 103 0 -16 38 c-59 140 -64 161 -39 182 16 14 5 18 253 -96 90 -41 115
-65 106 -101 l-6 -23 111 0 111 0 17 35 c9 19 14 37 11 40 -3 3 -30 12 -61 20
-31 8 -95 33 -143 55 -47 22 -88 40 -89 40 -4 0 -234 101 -352 155 -43 20
-131 63 -195 96 -65 33 -118 59 -118 56z"/>
<path d="M5842 325 c0 -16 2 -22 5 -12 2 9 2 23 0 30 -3 6 -5 -1 -5 -18z"/>
<path d="M30 266 c0 -2 8 -10 18 -17 15 -13 16 -12 3 4 -13 16 -21 21 -21 13z"/>
<path d="M870 266 c0 -2 7 -9 15 -16 9 -7 15 -8 15 -2 0 5 -7 12 -15 16 -8 3
-15 4 -15 2z"/>
<path d="M5833 230 c0 -25 2 -35 4 -22 2 12 2 32 0 45 -2 12 -4 2 -4 -23z"/>
<path d="M8 255 c-4 -4 8 -26 25 -49 18 -23 40 -53 50 -66 l18 -25 -6 27 c-3
14 -14 37 -25 50 -11 12 -28 33 -37 46 -10 13 -21 20 -25 17z"/>
<path d="M856 241 c-5 -7 -6 -13 -4 -14 2 -1 20 -18 41 -36 46 -43 49 -24 4
26 -24 25 -36 33 -41 24z"/>
<path d="M1 197 c-1 -22 102 -144 107 -127 2 6 -13 30 -35 53 -21 23 -46 53
-55 67 -14 21 -17 22 -17 7z"/>
<path d="M836 192 c-5 -14 11 -38 59 -88 66 -69 66 -69 59 -34 -6 34 -46 88
-90 123 -22 17 -23 17 -28 -1z"/>
<path d="M2995 200 c-3 -5 9 -53 27 -105 l32 -95 134 0 133 0 -3 33 c-3 35 0
33 -163 108 -146 67 -153 70 -160 59z"/>
<path d="M5850 181 c0 -25 6 -27 13 -6 4 8 2 17 -3 20 -6 4 -10 -3 -10 -14z"/>
<path d="M818 135 c-5 -26 94 -128 119 -123 14 2 3 18 -48 73 -55 57 -67 66
-71 50z"/>
<path d="M5851 134 c0 -11 3 -14 6 -6 3 7 2 16 -1 19 -3 4 -6 -2 -5 -13z"/>
<path d="M0 125 c0 -26 71 -115 92 -115 27 0 22 10 -37 74 -38 41 -55 54 -55
41z"/>
<path d="M5823 60 c0 -36 2 -50 4 -32 2 17 2 47 0 65 -2 17 -4 3 -4 -33z"/>
<path d="M804 76 c-9 -24 36 -69 64 -64 19 3 18 7 -18 42 -34 33 -40 36 -46
22z"/>
<path d="M0 59 c0 -16 37 -56 45 -48 2 3 -7 18 -20 34 -17 21 -24 25 -25 14z"/>
<path d="M5850 30 c0 -5 5 -10 11 -10 5 0 7 5 4 10 -3 6 -8 10 -11 10 -2 0 -4
-4 -4 -10z"/>
<path d="M790 20 c0 -5 7 -10 16 -10 8 0 12 5 9 10 -3 6 -10 10 -16 10 -5 0
-9 -4 -9 -10z"/>
</g>
</svg>
