<?xml version="1.0" standalone="no"?>
<!DOCTYPE svg PUBLIC "-//W3C//DTD SVG 20010904//EN"
 "http://www.w3.org/TR/2001/REC-SVG-20010904/DTD/svg10.dtd">
<svg version="1.0" xmlns="http://www.w3.org/2000/svg"
 width="400.000000pt" height="145.000000pt" viewBox="0 0 400.000000 145.000000"
 preserveAspectRatio="xMidYMid meet">

<g transform="translate(0.000000,145.000000) scale(0.100000,-0.100000)"
fill="#000000" stroke="none">
<path d="M1877 1375 c-21 -45 -21 -45 3 -45 20 0 20 -7 22 -647 2 -357 4 -498
5 -316 l3 333 499 0 500 0 4 -23 4 -22 2 23 1 22 249 0 c229 0 250 -1 254 -17
4 -17 5 -17 6 0 1 16 19 17 236 17 202 0 235 -2 235 -15 0 -19 7 -18 48 3 l33
18 -36 17 c-43 21 -45 21 -45 2 0 -13 -89 -15 -744 -15 -586 0 -745 3 -749 13
-4 10 -6 10 -6 0 -1 -10 -57 -13 -246 -13 l-245 0 0 59 0 58 89 6 c202 13 299
117 341 363 21 123 25 174 12 174 -4 0 -17 -60 -29 -134 -32 -199 -84 -291
-195 -347 -44 -22 -78 -31 -138 -36 l-80 -6 0 242 c0 208 2 241 15 241 8 0 15
2 15 5 0 11 -34 75 -40 75 -3 0 -14 -16 -23 -35z"/>
<path d="M870 1372 c0 -5 8 -17 18 -28 10 -10 47 -57 82 -104 56 -74 60 -82
30 -59 -47 36 -144 83 -205 100 -64 18 -226 18 -290 0 -199 -56 -370 -227
-426 -426 -18 -65 -18 -235 0 -300 56 -198 218 -360 416 -416 29 -8 95 -14
155 -14 119 0 173 12 275 63 125 62 259 222 289 345 6 26 8 27 81 27 73 0 74
0 78 -27 2 -16 4 -3 4 27 0 30 -2 45 -4 33 -4 -21 -10 -23 -75 -23 l-70 0 6
31 c3 17 6 47 6 65 l0 34 68 0 67 -1 50 -69 c28 -38 56 -70 63 -70 17 0 15 13
-6 41 -10 13 -31 41 -46 62 l-28 37 111 0 111 0 0 -25 c0 -14 2 -25 5 -25 10
0 95 44 95 50 0 6 -85 50 -95 50 -3 0 -5 -9 -5 -20 0 -19 -7 -20 -114 -20
l-114 0 -116 155 c-64 85 -117 159 -118 163 -3 10 79 74 199 154 40 27 73 56
73 64 0 9 -3 14 -8 12 -7 -3 -224 -151 -272 -186 -16 -12 -22 -8 -57 40 -22
29 -75 101 -118 161 -50 67 -86 107 -97 107 -10 0 -18 -4 -18 -8z m-220 -377
l0 -285 -285 0 -285 0 0 28 c0 41 35 174 58 219 54 105 160 210 265 265 47 24
170 57 215 57 l32 1 0 -285z m134 265 c102 -26 166 -62 247 -138 51 -47 66
-67 62 -83 -3 -11 -53 -52 -112 -92 -58 -40 -149 -102 -201 -138 -52 -36 -101
-68 -107 -73 -10 -6 -13 51 -13 268 l0 276 23 0 c13 0 59 -9 101 -20z m337
-287 l1 -28 7 30 7 30 23 -43 c25 -49 61 -180 61 -224 0 -27 -2 -28 -45 -28
-29 0 -45 4 -46 13 0 10 -2 10 -6 0 -3 -9 -37 -13 -119 -13 -108 0 -114 1
-114 20 0 12 -9 38 -19 58 l-19 38 126 86 c70 48 130 87 135 88 4 0 8 -12 8
-27z m156 -145 c38 -51 73 -99 77 -105 5 -10 -8 -13 -53 -13 l-61 0 0 38 c0
20 -9 67 -19 105 -11 37 -18 67 -17 67 2 0 35 -42 73 -92z m-421 -53 c26 -63
24 -65 -78 -65 l-92 0 70 50 c38 27 73 49 77 50 4 0 15 -16 23 -35z m-206
-356 l0 -282 -58 6 c-269 28 -477 234 -508 503 l-7 54 287 0 286 0 0 -281z
m566 225 c-4 -31 -9 -61 -12 -65 -3 -5 -126 -9 -275 -9 l-269 0 0 65 0 65 281
0 282 0 -7 -56z m-21 -106 c-40 -136 -156 -272 -288 -339 -45 -24 -177 -59
-219 -59 l-28 0 0 210 0 210 271 0 270 0 -6 -22z"/>
<path d="M1122 885 c0 -16 2 -22 5 -12 2 9 2 23 0 30 -3 6 -5 -1 -5 -18z"/>
<path d="M940 811 l25 -8 -25 -4 c-17 -3 -25 -10 -25 -24 0 -15 8 -21 33 -23
32 -3 33 -2 30 30 -3 29 -7 33 -33 35 -28 2 -29 1 -5 -6z m20 -36 c0 -8 -7
-15 -15 -15 -8 0 -15 7 -15 15 0 8 7 15 15 15 8 0 15 -7 15 -15z"/>
<path d="M1122 795 c0 -16 2 -22 5 -12 2 9 2 23 0 30 -3 6 -5 -1 -5 -18z"/>
<path d="M532 658 c-28 -28 -7 -78 33 -78 12 0 26 5 33 12 7 7 12 21 12 33 0
12 -5 26 -12 33 -7 7 -21 12 -33 12 -12 0 -26 -5 -33 -12z m53 -33 c0 -23 -4
-30 -20 -30 -21 0 -31 25 -21 51 11 28 41 12 41 -21z"/>
<path d="M744 519 c-4 -7 3 -20 17 -29 l23 -18 -25 -5 c-23 -4 -23 -4 3 -6 37
-2 46 18 17 39 l-23 18 25 5 c23 4 23 4 -3 6 -15 0 -30 -4 -34 -10z"/>
<path d="M824 516 c-16 -40 30 -76 60 -46 8 9 4 10 -16 5 -18 -5 -28 -3 -28 4
0 6 12 11 26 11 19 0 25 5 22 18 -4 22 -56 29 -64 8z m46 -6 c0 -5 -7 -10 -15
-10 -8 0 -15 5 -15 10 0 6 7 10 15 10 8 0 15 -4 15 -10z"/>
<path d="M914 516 c-16 -40 31 -76 60 -46 8 9 4 10 -16 5 -25 -7 -28 -5 -28
20 0 24 3 26 26 21 17 -5 23 -3 19 4 -9 15 -55 12 -61 -4z"/>
<path d="M1050 521 l25 -8 -25 -4 c-17 -3 -25 -10 -25 -24 0 -15 8 -21 33 -23
32 -3 33 -2 30 30 -3 29 -7 33 -33 35 -28 2 -29 1 -5 -6z m20 -36 c0 -8 -7
-15 -15 -15 -8 0 -15 7 -15 15 0 8 7 15 15 15 8 0 15 -7 15 -15z"/>
<path d="M2402 1350 c0 -14 2 -19 5 -12 2 6 2 18 0 25 -3 6 -5 1 -5 -13z"/>
<path d="M3495 1303 c12 -121 35 -217 68 -283 44 -88 70 -116 140 -152 51 -25
76 -31 159 -35 62 -4 98 -2 98 4 0 6 -40 13 -89 16 -72 4 -100 11 -149 36 -69
35 -95 63 -139 151 -31 63 -54 155 -68 273 -3 31 -11 57 -17 57 -7 0 -8 -23
-3 -67z"/>
<path d="M3422 1330 c0 -14 2 -19 5 -12 2 6 2 18 0 25 -3 6 -5 1 -5 -13z"/>
<path d="M1784 1304 c17 -43 18 -67 5 -75 -11 -7 -9 -9 8 -9 16 0 25 10 37 47
19 55 19 53 6 53 -5 0 -13 -12 -17 -27 l-6 -28 -10 28 c-5 15 -13 27 -19 27
-6 0 -7 -7 -4 -16z"/>
<path d="M2402 1270 c0 -14 2 -19 5 -12 2 6 2 18 0 25 -3 6 -5 1 -5 -13z"/>
<path d="M3422 1250 c0 -14 2 -19 5 -12 2 6 2 18 0 25 -3 6 -5 1 -5 -13z"/>
<path d="M1111 1173 l2 -48 6 40 6 40 14 -34 14 -33 18 33 18 34 1 -37 c0 -21
5 -38 10 -38 6 0 10 20 10 45 0 48 -23 64 -35 25 -3 -11 -10 -20 -15 -20 -5 0
-12 9 -15 20 -3 11 -13 20 -21 20 -10 0 -14 -12 -13 -47z"/>
<path d="M2402 1190 c0 -14 2 -19 5 -12 2 6 2 18 0 25 -3 6 -5 1 -5 -13z"/>
<path d="M3422 1170 c0 -14 2 -19 5 -12 2 6 2 18 0 25 -3 6 -5 1 -5 -13z"/>
<path d="M2402 1110 c0 -14 2 -19 5 -12 2 6 2 18 0 25 -3 6 -5 1 -5 -13z"/>
<path d="M3422 1090 c0 -14 2 -19 5 -12 2 6 2 18 0 25 -3 6 -5 1 -5 -13z"/>
<path d="M2402 1030 c0 -14 2 -19 5 -12 2 6 2 18 0 25 -3 6 -5 1 -5 -13z"/>
<path d="M3422 1010 c0 -14 2 -19 5 -12 2 6 2 18 0 25 -3 6 -5 1 -5 -13z"/>
<path d="M2402 950 c0 -14 2 -19 5 -12 2 6 2 18 0 25 -3 6 -5 1 -5 -13z"/>
<path d="M3422 930 c0 -14 2 -19 5 -12 2 6 2 18 0 25 -3 6 -5 1 -5 -13z"/>
<path d="M2425 890 c-3 -6 1 -7 9 -4 20 8 22 -26 4 -45 -11 -11 -10 -13 2 -9
8 3 16 17 18 31 4 37 22 34 22 -3 0 -20 5 -30 15 -30 8 0 15 5 15 11 0 5 -4 7
-10 4 -6 -3 -10 5 -10 19 0 13 6 27 13 29 6 3 -7 6 -30 6 -23 1 -45 -3 -48 -9z"/>
<path d="M3444 889 c-5 -8 -2 -11 8 -7 11 5 15 -1 16 -22 0 -23 -3 -28 -16
-23 -13 5 -14 3 -5 -7 20 -22 43 -4 40 32 -3 34 -28 50 -43 27z"/>
<path d="M3505 890 c-3 -6 1 -7 9 -4 20 8 22 -26 4 -45 -11 -11 -10 -13 2 -9
8 3 16 17 18 31 4 37 22 34 22 -3 0 -20 5 -30 15 -30 8 0 15 5 15 11 0 5 -4 7
-10 4 -6 -3 -10 5 -10 19 0 13 6 27 13 29 6 3 -7 6 -30 6 -23 1 -45 -3 -48 -9z"/>
<path d="M2402 870 c0 -14 2 -19 5 -12 2 6 2 18 0 25 -3 6 -5 1 -5 -13z"/>
<path d="M1842 858 c-15 -15 -16 -32 -2 -23 6 4 10 -5 10 -19 0 -14 5 -26 10
-26 6 0 10 18 10 40 0 41 -7 49 -28 28z"/>
<path d="M3422 850 c0 -14 2 -19 5 -12 2 6 2 18 0 25 -3 6 -5 1 -5 -13z"/>
<path d="M1380 841 c0 -16 43 -111 50 -111 7 0 50 95 50 111 0 24 -18 5 -30
-31 -7 -22 -16 -40 -20 -40 -4 0 -13 18 -20 40 -12 36 -30 55 -30 31z"/>
<path d="M2453 813 c15 -2 37 -2 50 0 12 2 0 4 -28 4 -27 0 -38 -2 -22 -4z"/>
<path d="M3533 813 c15 -2 37 -2 50 0 12 2 0 4 -28 4 -27 0 -38 -2 -22 -4z"/>
<path d="M2402 790 c0 -14 2 -19 5 -12 2 6 2 18 0 25 -3 6 -5 1 -5 -13z"/>
<path d="M2454 788 c-5 -8 -2 -9 9 -5 22 8 23 -16 2 -33 -23 -19 -18 -30 13
-29 18 1 21 3 9 6 -17 4 -18 6 -2 24 10 10 15 25 12 34 -7 18 -33 20 -43 3z"/>
<path d="M2875 790 c-3 -6 1 -7 9 -4 20 8 22 -26 4 -45 -11 -11 -10 -13 2 -9
8 3 16 17 18 31 4 37 22 34 22 -3 0 -20 5 -30 15 -30 8 0 15 5 15 11 0 5 -4 7
-10 4 -6 -3 -10 5 -10 19 0 13 6 27 13 29 6 3 -7 6 -30 6 -23 1 -45 -3 -48 -9z"/>
<path d="M3534 788 c-5 -8 -2 -9 9 -5 22 8 23 -16 2 -33 -23 -19 -18 -30 13
-29 18 1 21 3 9 6 -17 4 -18 6 -2 24 10 10 15 25 12 34 -7 18 -33 20 -43 3z"/>
<path d="M3422 770 c0 -14 2 -19 5 -12 2 6 2 18 0 25 -3 6 -5 1 -5 -13z"/>
<path d="M1934 676 c-11 -28 0 -61 21 -61 16 0 20 7 20 35 0 25 -5 36 -18 38
-9 2 -20 -3 -23 -12z m23 -43 c-3 -10 -5 -2 -5 17 0 19 2 27 5 18 2 -10 2 -26
0 -35z"/>
<path d="M2402 630 c0 -14 2 -19 5 -12 2 6 2 18 0 25 -3 6 -5 1 -5 -13z"/>
<path d="M3890 641 c0 -6 5 -13 10 -16 8 -5 7 -11 -1 -21 -6 -8 -9 -18 -5 -21
4 -4 11 -1 17 7 8 13 10 13 18 0 6 -8 13 -11 17 -7 4 3 2 13 -4 20 -9 10 -9
16 0 25 6 6 8 15 4 19 -4 4 -12 1 -17 -7 -8 -11 -12 -12 -16 -2 -6 14 -23 16
-23 3z"/>
<path d="M1641 609 c7 -13 6 -26 -1 -40 -15 -26 -6 -36 16 -18 13 11 18 11 21
2 5 -14 33 -18 33 -5 0 4 -5 13 -12 20 -8 8 -9 18 -1 35 11 23 10 24 -27 24
-35 0 -38 -2 -29 -18z"/>
<path d="M1842 618 c-15 -15 -16 -32 -2 -23 6 4 10 -5 10 -19 0 -14 5 -26 10
-26 6 0 10 18 10 40 0 41 -7 49 -28 28z"/>
<path d="M3422 610 c0 -14 2 -19 5 -12 2 6 2 18 0 25 -3 6 -5 1 -5 -13z"/>
<path d="M2911 608 c-1 -21 -31 -31 -65 -22 -15 3 -32 2 -39 -4 -6 -5 -28 -13
-47 -17 -89 -19 -168 -77 -207 -153 -49 -92 -104 -372 -74 -372 5 0 14 37 21
83 34 237 82 331 200 392 118 61 333 61 450 0 120 -62 166 -152 200 -392 7
-46 16 -83 21 -83 33 0 -33 315 -81 390 -59 92 -179 150 -312 150 -51 0 -57 2
-61 23 -3 13 -5 15 -6 5z"/>
<path d="M1928 583 c6 -2 18 -2 25 0 6 3 1 5 -13 5 -14 0 -19 -2 -12 -5z"/>
<path d="M2008 583 c6 -2 18 -2 25 0 6 3 1 5 -13 5 -14 0 -19 -2 -12 -5z"/>
<path d="M2088 583 c6 -2 18 -2 25 0 6 3 1 5 -13 5 -14 0 -19 -2 -12 -5z"/>
<path d="M2168 583 c6 -2 18 -2 25 0 6 3 1 5 -13 5 -14 0 -19 -2 -12 -5z"/>
<path d="M2248 583 c6 -2 18 -2 25 0 6 3 1 5 -13 5 -14 0 -19 -2 -12 -5z"/>
<path d="M2333 583 c9 -2 23 -2 30 0 6 3 -1 5 -18 5 -16 0 -22 -2 -12 -5z"/>
<path d="M2418 583 c6 -2 18 -2 25 0 6 3 1 5 -13 5 -14 0 -19 -2 -12 -5z"/>
<path d="M2498 583 c6 -2 18 -2 25 0 6 3 1 5 -13 5 -14 0 -19 -2 -12 -5z"/>
<path d="M2578 583 c6 -2 18 -2 25 0 6 3 1 5 -13 5 -14 0 -19 -2 -12 -5z"/>
<path d="M2658 583 c6 -2 18 -2 25 0 6 3 1 5 -13 5 -14 0 -19 -2 -12 -5z"/>
<path d="M2738 583 c6 -2 18 -2 25 0 6 3 1 5 -13 5 -14 0 -19 -2 -12 -5z"/>
<path d="M1783 573 c9 -2 23 -2 30 0 6 3 -1 5 -18 5 -16 0 -22 -2 -12 -5z"/>
<path d="M2402 550 c0 -14 2 -19 5 -12 2 6 2 18 0 25 -3 6 -5 1 -5 -13z"/>
<path d="M3422 530 c0 -14 2 -19 5 -12 2 6 2 18 0 25 -3 6 -5 1 -5 -13z"/>
<path d="M2402 470 c0 -14 2 -19 5 -12 2 6 2 18 0 25 -3 6 -5 1 -5 -13z"/>
<path d="M3422 450 c0 -14 2 -19 5 -12 2 6 2 18 0 25 -3 6 -5 1 -5 -13z"/>
<path d="M2402 390 c0 -14 2 -19 5 -12 2 6 2 18 0 25 -3 6 -5 1 -5 -13z"/>
<path d="M3422 370 c0 -14 2 -19 5 -12 2 6 2 18 0 25 -3 6 -5 1 -5 -13z"/>
<path d="M2402 310 c0 -14 2 -19 5 -12 2 6 2 18 0 25 -3 6 -5 1 -5 -13z"/>
<path d="M3422 290 c0 -14 2 -19 5 -12 2 6 2 18 0 25 -3 6 -5 1 -5 -13z"/>
<path d="M2402 230 c0 -14 2 -19 5 -12 2 6 2 18 0 25 -3 6 -5 1 -5 -13z"/>
<path d="M3422 210 c0 -14 2 -19 5 -12 2 6 2 18 0 25 -3 6 -5 1 -5 -13z"/>
<path d="M2402 150 c0 -14 2 -19 5 -12 2 6 2 18 0 25 -3 6 -5 1 -5 -13z"/>
<path d="M3422 130 c0 -14 2 -19 5 -12 2 6 2 18 0 25 -3 6 -5 1 -5 -13z"/>
<path d="M2402 70 c0 -14 2 -19 5 -12 2 6 2 18 0 25 -3 6 -5 1 -5 -13z"/>
<path d="M3422 50 c0 -14 2 -19 5 -12 2 6 2 18 0 25 -3 6 -5 1 -5 -13z"/>
</g>
</svg>
