<?xml version="1.0" standalone="no"?>
<!DOCTYPE svg PUBLIC "-//W3C//DTD SVG 20010904//EN"
 "http://www.w3.org/TR/2001/REC-SVG-20010904/DTD/svg10.dtd">
<svg version="1.0" xmlns="http://www.w3.org/2000/svg"
 width="157.000000pt" height="277.000000pt" viewBox="0 0 157.000000 277.000000"
 preserveAspectRatio="xMidYMid meet">

<g transform="translate(0.000000,277.000000) scale(0.100000,-0.100000)"
fill="#000000" stroke="none">
<path d="M1166 2749 c-17 -16 -17 -19 -3 -19 12 0 17 -12 20 -47 3 -40 4 -37
5 20 1 37 1 67 0 66 -2 0 -12 -9 -22 -20z"/>
<path d="M582 2648 c-17 -17 -15 -47 3 -54 21 -9 47 15 43 40 -4 24 -28 32
-46 14z m32 -7 c9 -14 -4 -41 -20 -41 -15 0 -17 10 -8 34 7 18 20 21 28 7z"/>
<path d="M397 2611 c-33 -50 -34 -61 -2 -61 16 0 25 -6 25 -15 0 -21 20 -19
21 3 2 41 -3 98 -10 105 -4 4 -20 -10 -34 -32z m23 -26 c0 -16 -6 -25 -15 -25
-18 0 -20 21 -3 38 17 17 18 16 18 -13z"/>
<path d="M480 2638 c0 -7 -3 -23 -6 -35 -6 -21 -4 -22 23 -17 23 4 32 2 37
-11 10 -26 -4 -38 -36 -31 -26 5 -29 4 -18 -9 27 -33 75 -7 68 37 -2 17 -11
24 -30 26 -35 4 -38 32 -4 32 14 0 28 5 31 10 4 6 -8 10 -29 10 -22 0 -36 -5
-36 -12z"/>
<path d="M30 2604 c-12 -14 -12 -18 4 -30 10 -7 24 -15 30 -17 8 -3 7 -8 -1
-17 -10 -11 -15 -11 -28 0 -17 14 -31 8 -20 -9 8 -15 48 -14 63 1 19 19 14 37
-13 44 -14 3 -25 10 -25 14 0 14 27 19 40 7 10 -9 11 -9 8 3 -6 21 -42 24 -58
4z"/>
<path d="M127 2602 c-19 -21 -23 -67 -6 -77 14 -9 59 3 59 16 0 6 -6 6 -17 1
-22 -12 -43 -5 -43 14 0 9 11 14 33 14 41 0 49 7 36 31 -12 24 -41 24 -62 1z
m53 -13 c0 -5 -11 -9 -25 -9 -26 0 -34 15 -12 23 16 5 37 -3 37 -14z"/>
<path d="M233 2612 c-19 -12 -32 -56 -22 -75 12 -20 40 -22 57 -5 20 20 13 32
-7 14 -36 -32 -59 15 -25 49 13 12 19 13 30 4 16 -13 30 -6 19 10 -7 13 -35
14 -52 3z"/>
<path d="M723 2573 c15 -2 37 -2 50 0 12 2 0 4 -28 4 -27 0 -38 -2 -22 -4z"/>
<path d="M1028 2563 c89 -2 235 -2 325 0 89 1 16 3 -163 3 -179 0 -252 -2
-162 -3z"/>
<path d="M723 2543 c15 -2 37 -2 50 0 12 2 0 4 -28 4 -27 0 -38 -2 -22 -4z"/>
<path d="M1247 2481 c-33 -50 -34 -61 -2 -61 16 0 25 -6 25 -15 0 -21 20 -19
21 3 2 41 -3 98 -10 105 -4 4 -20 -10 -34 -32z m23 -26 c0 -16 -6 -25 -15 -25
-18 0 -20 21 -3 38 17 17 18 16 18 -13z"/>
<path d="M1330 2508 c0 -7 -3 -23 -6 -35 -6 -21 -4 -22 23 -17 23 4 32 2 37
-11 10 -26 -4 -38 -36 -31 -26 5 -29 4 -18 -9 27 -33 75 -7 68 37 -2 17 -11
24 -30 26 -35 4 -38 32 -4 32 14 0 28 5 31 10 4 6 -8 10 -29 10 -22 0 -36 -5
-36 -12z"/>
<path d="M1432 2508 c-17 -17 -15 -47 3 -54 21 -9 47 15 43 40 -4 24 -28 32
-46 14z m32 -7 c9 -14 -4 -41 -20 -41 -15 0 -17 10 -8 34 7 18 20 21 28 7z"/>
<path d="M913 2482 c-19 -12 -32 -56 -22 -75 12 -20 40 -22 57 -5 20 20 13 32
-7 14 -36 -32 -59 15 -25 49 13 12 19 13 30 4 16 -13 30 -6 19 10 -7 13 -35
14 -52 3z"/>
<path d="M998 2473 c-22 -25 -27 -45 -16 -65 21 -43 81 -6 76 46 -4 37 -35 47
-60 19z m52 -21 c0 -22 -29 -52 -46 -45 -19 7 -18 32 2 54 18 20 44 15 44 -9z"/>
<path d="M1090 2474 c-12 -14 -12 -18 4 -30 10 -7 24 -15 30 -17 8 -3 7 -8 -1
-17 -10 -11 -15 -11 -28 0 -17 14 -31 8 -20 -9 8 -15 48 -14 63 1 19 19 14 37
-13 44 -14 3 -25 10 -25 14 0 14 27 19 40 7 10 -9 11 -9 8 3 -6 21 -42 24 -58
4z"/>
<path d="M976 2259 c-17 -16 -17 -19 -3 -19 12 0 17 -12 20 -47 3 -40 4 -37 5
20 1 37 1 67 0 66 -2 0 -12 -9 -22 -20z"/>
<path d="M602 2168 c-17 -17 -15 -47 3 -54 21 -9 47 15 43 40 -4 24 -28 32
-46 14z m32 -7 c9 -14 -4 -41 -20 -41 -15 0 -17 10 -8 34 7 18 20 21 28 7z"/>
<path d="M417 2121 c-33 -50 -34 -61 -2 -61 16 0 25 -6 25 -15 0 -21 20 -19
21 3 2 41 -3 98 -10 105 -4 4 -20 -10 -34 -32z m23 -26 c0 -16 -6 -25 -15 -25
-18 0 -20 21 -3 38 17 17 18 16 18 -13z"/>
<path d="M500 2148 c0 -7 -3 -23 -6 -35 -6 -21 -4 -22 23 -17 23 4 32 2 37
-11 10 -26 -4 -38 -36 -31 -26 5 -29 4 -18 -9 27 -33 75 -7 68 37 -2 17 -11
24 -30 26 -35 4 -38 32 -4 32 14 0 28 5 31 10 4 6 -8 10 -29 10 -22 0 -36 -5
-36 -12z"/>
<path d="M17 2123 c-15 -14 -5 -33 24 -49 24 -12 28 -18 18 -24 -7 -5 -21 -4
-32 2 -15 8 -18 7 -15 -4 3 -7 18 -13 34 -13 22 0 30 5 32 22 3 17 -3 24 -22
29 -26 6 -32 15 -19 27 3 4 12 2 20 -5 15 -12 28 -5 18 11 -7 12 -48 15 -58 4z"/>
<path d="M112 2118 c-15 -15 -15 -61 0 -76 16 -16 43 -15 57 2 10 12 7 14 -16
13 -40 -3 -45 17 -5 21 17 2 32 9 32 16 0 17 -21 36 -40 36 -9 0 -21 -5 -28
-12z m48 -13 c11 -13 8 -15 -21 -15 -32 1 -33 1 -15 15 24 18 21 18 36 0z"/>
<path d="M212 2118 c-17 -17 -15 -63 3 -78 20 -16 49 -9 53 14 4 19 3 19 -13
2 -13 -13 -20 -14 -31 -5 -31 26 -6 76 29 58 15 -9 18 -8 15 3 -6 18 -40 22
-56 6z"/>
<path d="M743 2083 c15 -2 37 -2 50 0 12 2 0 4 -28 4 -27 0 -38 -2 -22 -4z"/>
<path d="M943 2073 c31 -2 83 -2 115 0 31 2 5 3 -58 3 -63 0 -89 -1 -57 -3z"/>
<path d="M743 2053 c15 -2 37 -2 50 0 12 2 0 4 -28 4 -27 0 -38 -2 -22 -4z"/>
<path d="M1006 2042 c-2 -4 13 -6 35 -4 21 2 39 6 39 8 0 7 -69 4 -74 -4z"/>
<path d="M1027 2013 c-4 -3 -7 -11 -7 -17 0 -6 5 -4 10 4 7 12 12 12 21 3 10
-10 7 -18 -14 -37 -35 -32 -34 -36 6 -35 25 1 27 3 9 6 l-24 5 22 23 c13 14
20 31 17 39 -7 16 -28 21 -40 9z"/>
<path d="M921 1975 c-1 -20 26 -58 33 -46 4 6 3 11 -2 11 -5 0 -14 10 -20 23
-6 12 -11 18 -11 12z"/>
<path d="M943 1903 c26 -2 68 -2 95 0 26 2 4 3 -48 3 -52 0 -74 -1 -47 -3z"/>
<path d="M977 1883 c-4 -3 -7 -11 -7 -17 0 -6 5 -4 10 4 7 12 12 12 21 3 10
-10 7 -18 -14 -37 -35 -32 -34 -36 6 -35 25 1 27 3 9 6 l-24 5 22 23 c13 14
20 31 17 39 -7 16 -28 21 -40 9z"/>
<path d="M1222 1758 c-7 -7 -12 -19 -12 -27 0 -11 6 -9 21 8 16 17 24 19 34
11 18 -15 11 -32 -25 -59 -43 -31 -39 -51 10 -51 22 0 40 5 40 10 0 6 -15 10
-32 10 l-33 1 33 27 c18 15 32 34 32 43 0 20 -20 39 -40 39 -9 0 -21 -5 -28
-12z"/>
<path d="M602 1648 c-17 -17 -15 -47 3 -54 21 -9 47 15 43 40 -4 24 -28 32
-46 14z m32 -7 c9 -14 -4 -41 -20 -41 -15 0 -17 10 -8 34 7 18 20 21 28 7z"/>
<path d="M417 1611 c-33 -50 -34 -61 -2 -61 16 0 25 -6 25 -15 0 -21 20 -19
21 3 2 41 -3 98 -10 105 -4 4 -20 -10 -34 -32z m23 -26 c0 -16 -6 -25 -15 -25
-18 0 -20 21 -3 38 17 17 18 16 18 -13z"/>
<path d="M500 1638 c0 -7 -3 -23 -6 -35 -6 -21 -4 -22 23 -17 23 4 32 2 37
-11 10 -26 -4 -38 -36 -31 -26 5 -29 4 -18 -9 27 -33 75 -7 68 37 -2 17 -11
24 -30 26 -35 4 -38 32 -4 32 14 0 28 5 31 10 4 6 -8 10 -29 10 -22 0 -36 -5
-36 -12z"/>
<path d="M906 1629 c-17 -16 -17 -19 -3 -19 12 0 17 -12 20 -47 3 -40 4 -37 5
20 1 37 1 67 0 66 -2 0 -12 -9 -22 -20z"/>
<path d="M17 1613 c-15 -14 -5 -33 24 -49 24 -12 28 -18 18 -24 -7 -5 -21 -4
-32 2 -15 8 -18 7 -15 -4 3 -7 18 -13 34 -13 22 0 30 5 32 22 3 17 -3 24 -22
29 -26 6 -32 15 -19 27 3 4 12 2 20 -5 15 -12 28 -5 18 11 -7 12 -48 15 -58 4z"/>
<path d="M112 1608 c-15 -15 -15 -61 0 -76 16 -16 43 -15 57 2 10 12 7 14 -16
13 -40 -3 -45 17 -5 21 17 2 32 9 32 16 0 17 -21 36 -40 36 -9 0 -21 -5 -28
-12z m48 -13 c11 -13 8 -15 -21 -15 -32 1 -33 1 -15 15 24 18 21 18 36 0z"/>
<path d="M212 1608 c-17 -17 -15 -63 3 -78 20 -16 49 -9 53 14 4 19 3 19 -13
2 -13 -13 -20 -14 -31 -5 -31 26 -6 76 29 58 15 -9 18 -8 15 3 -6 18 -40 22
-56 6z"/>
<path d="M743 1573 c15 -2 37 -2 50 0 12 2 0 4 -28 4 -27 0 -38 -2 -22 -4z"/>
<path d="M1183 1563 c37 -2 97 -2 135 0 37 2 6 3 -68 3 -74 0 -105 -1 -67 -3z"/>
<path d="M743 1543 c15 -2 37 -2 50 0 12 2 0 4 -28 4 -27 0 -38 -2 -22 -4z"/>
<path d="M1239 1469 c-16 -34 -29 -63 -26 -65 2 -2 16 23 32 56 l28 59 56 4
56 3 -57 2 -58 2 -31 -61z"/>
<path d="M1292 1488 c-7 -7 -12 -19 -12 -27 0 -11 6 -9 21 8 16 17 24 19 34
11 18 -15 11 -32 -25 -59 -43 -31 -39 -51 10 -51 22 0 40 5 40 10 0 6 -15 10
-32 10 l-33 1 33 27 c18 15 32 34 32 43 0 20 -20 39 -40 39 -9 0 -21 -5 -28
-12z"/>
<path d="M1151 1430 c0 -22 35 -85 41 -74 3 5 -6 27 -18 49 -13 22 -24 33 -23
25z"/>
<path d="M1429 1219 c-16 -34 -29 -63 -26 -65 2 -2 16 23 32 56 l28 59 56 4
56 3 -57 2 -58 2 -31 -61z"/>
<path d="M982 1228 c-7 -7 -12 -19 -12 -27 0 -11 6 -9 21 8 16 17 24 19 34 11
18 -15 11 -32 -25 -59 -43 -31 -39 -51 10 -51 22 0 40 5 40 10 0 6 -15 10 -32
10 l-33 1 33 27 c18 15 32 34 32 43 0 20 -20 39 -40 39 -9 0 -21 -5 -28 -12z"/>
<path d="M1482 1228 c-7 -7 -12 -19 -12 -27 0 -11 6 -9 21 8 16 17 24 19 34
11 18 -15 11 -32 -25 -59 -43 -31 -39 -51 10 -51 22 0 40 5 40 10 0 6 -15 10
-32 10 l-33 1 33 27 c18 15 32 34 32 43 0 20 -20 39 -40 39 -9 0 -21 -5 -28
-12z"/>
<path d="M1341 1180 c0 -22 35 -85 41 -74 3 5 -6 27 -18 49 -13 22 -24 33 -23
25z"/>
<path d="M602 1118 c-17 -17 -15 -47 3 -54 21 -9 47 15 43 40 -4 24 -28 32
-46 14z m32 -7 c9 -14 -4 -41 -20 -41 -15 0 -17 10 -8 34 7 18 20 21 28 7z"/>
<path d="M417 1081 c-33 -50 -34 -61 -2 -61 16 0 25 -6 25 -15 0 -21 20 -19
21 3 2 41 -3 98 -10 105 -4 4 -20 -10 -34 -32z m23 -26 c0 -16 -6 -25 -15 -25
-18 0 -20 21 -3 38 17 17 18 16 18 -13z"/>
<path d="M500 1108 c0 -7 -3 -23 -6 -35 -6 -21 -4 -22 23 -17 23 4 32 2 37
-11 10 -26 -4 -38 -36 -31 -26 5 -29 4 -18 -9 27 -33 75 -7 68 37 -2 17 -11
24 -30 26 -35 4 -38 32 -4 32 14 0 28 5 31 10 4 6 -8 10 -29 10 -22 0 -36 -5
-36 -12z"/>
<path d="M17 1083 c-15 -14 -5 -33 24 -49 24 -12 28 -18 18 -24 -7 -5 -21 -4
-32 2 -15 8 -18 7 -15 -4 3 -7 18 -13 34 -13 22 0 30 5 32 22 3 17 -3 24 -22
29 -26 6 -32 15 -19 27 3 4 12 2 20 -5 15 -12 28 -5 18 11 -7 12 -48 15 -58 4z"/>
<path d="M112 1078 c-15 -15 -15 -61 0 -76 16 -16 43 -15 57 2 10 12 7 14 -16
13 -40 -3 -45 17 -5 21 17 2 32 9 32 16 0 17 -21 36 -40 36 -9 0 -21 -5 -28
-12z m48 -13 c11 -13 8 -15 -21 -15 -32 1 -33 1 -15 15 24 18 21 18 36 0z"/>
<path d="M212 1078 c-17 -17 -15 -63 3 -78 20 -16 49 -9 53 14 4 19 3 19 -13
2 -13 -13 -20 -14 -31 -5 -31 26 -6 76 29 58 15 -9 18 -8 15 3 -6 18 -40 22
-56 6z"/>
<path d="M743 1043 c15 -2 37 -2 50 0 12 2 0 4 -28 4 -27 0 -38 -2 -22 -4z"/>
<path d="M953 1033 c37 -2 97 -2 135 0 37 2 6 3 -68 3 -74 0 -105 -1 -67 -3z"/>
<path d="M1373 1033 c37 -2 97 -2 135 0 37 2 6 3 -68 3 -74 0 -105 -1 -67 -3z"/>
<path d="M743 1013 c15 -2 37 -2 50 0 12 2 0 4 -28 4 -27 0 -38 -2 -22 -4z"/>
<path d="M1009 939 c-16 -34 -29 -63 -26 -65 2 -2 16 23 32 56 l28 59 56 4 56
3 -57 2 -58 2 -31 -61z"/>
<path d="M1429 939 c-16 -34 -29 -63 -26 -65 2 -2 16 23 32 56 l28 59 56 4 56
3 -57 2 -58 2 -31 -61z"/>
<path d="M1062 958 c-7 -7 -12 -19 -12 -27 0 -11 6 -9 21 8 16 17 24 19 34 11
18 -15 11 -32 -25 -59 -43 -31 -39 -51 10 -51 22 0 40 5 40 10 0 6 -15 10 -32
10 l-33 1 33 27 c18 15 32 34 32 43 0 20 -20 39 -40 39 -9 0 -21 -5 -28 -12z"/>
<path d="M1482 958 c-7 -7 -12 -19 -12 -27 0 -11 6 -9 21 8 16 17 24 19 34 11
18 -15 11 -32 -25 -59 -43 -31 -39 -51 10 -51 22 0 40 5 40 10 0 6 -15 10 -32
10 l-33 1 33 27 c18 15 32 34 32 43 0 20 -20 39 -40 39 -9 0 -21 -5 -28 -12z"/>
<path d="M921 900 c0 -22 35 -85 41 -74 3 5 -6 27 -18 49 -13 22 -24 33 -23
25z"/>
<path d="M1341 900 c0 -22 35 -85 41 -74 3 5 -6 27 -18 49 -13 22 -24 33 -23
25z"/>
<path d="M1109 689 c-16 -34 -29 -63 -26 -65 2 -2 16 23 32 56 l28 59 56 4 56
3 -57 2 -58 2 -31 -61z"/>
<path d="M912 698 c-7 -7 -12 -19 -12 -27 0 -11 6 -9 21 8 16 17 24 19 34 11
18 -15 11 -32 -25 -59 -43 -31 -39 -51 10 -51 22 0 40 5 40 10 0 6 -15 10 -32
10 l-33 1 33 27 c18 15 32 34 32 43 0 20 -20 39 -40 39 -9 0 -21 -5 -28 -12z"/>
<path d="M1162 698 c-7 -7 -12 -19 -12 -27 0 -11 6 -9 21 8 16 17 24 19 34 11
18 -15 11 -32 -25 -59 -43 -31 -39 -51 10 -51 22 0 40 5 40 10 0 6 -15 10 -32
10 l-33 1 33 27 c18 15 32 34 32 43 0 20 -20 39 -40 39 -9 0 -21 -5 -28 -12z"/>
<path d="M1021 650 c0 -22 35 -85 41 -74 3 5 -6 27 -18 49 -13 22 -24 33 -23
25z"/>
<path d="M602 588 c-17 -17 -15 -47 3 -54 21 -9 47 15 43 40 -4 24 -28 32 -46
14z m32 -7 c9 -14 -4 -41 -20 -41 -15 0 -17 10 -8 34 7 18 20 21 28 7z"/>
<path d="M417 551 c-33 -50 -34 -61 -2 -61 16 0 25 -6 25 -15 0 -21 20 -19 21
3 2 41 -3 98 -10 105 -4 4 -20 -10 -34 -32z m23 -26 c0 -16 -6 -25 -15 -25
-18 0 -20 21 -3 38 17 17 18 16 18 -13z"/>
<path d="M500 578 c0 -7 -3 -23 -6 -35 -6 -21 -4 -22 23 -17 23 4 32 2 37 -11
10 -26 -4 -38 -36 -31 -26 5 -29 4 -18 -9 27 -33 75 -7 68 37 -2 17 -11 24
-30 26 -35 4 -38 32 -4 32 14 0 28 5 31 10 4 6 -8 10 -29 10 -22 0 -36 -5 -36
-12z"/>
<path d="M17 553 c-15 -14 -5 -33 24 -49 24 -12 28 -18 18 -24 -7 -5 -21 -4
-32 2 -15 8 -18 7 -15 -4 3 -7 18 -13 34 -13 22 0 30 5 32 22 3 17 -3 24 -22
29 -26 6 -32 15 -19 27 3 4 12 2 20 -5 15 -12 28 -5 18 11 -7 12 -48 15 -58 4z"/>
<path d="M112 548 c-15 -15 -15 -61 0 -76 16 -16 43 -15 57 2 10 12 7 14 -16
13 -40 -3 -45 17 -5 21 17 2 32 9 32 16 0 17 -21 36 -40 36 -9 0 -21 -5 -28
-12z m48 -13 c11 -13 8 -15 -21 -15 -32 1 -33 1 -15 15 24 18 21 18 36 0z"/>
<path d="M212 548 c-17 -17 -15 -63 3 -78 20 -16 49 -9 53 14 4 19 3 19 -13 2
-13 -13 -20 -14 -31 -5 -31 26 -6 76 29 58 15 -9 18 -8 15 3 -6 18 -40 22 -56
6z"/>
<path d="M743 513 c15 -2 37 -2 50 0 12 2 0 4 -28 4 -27 0 -38 -2 -22 -4z"/>
<path d="M977 503 c51 -2 135 -2 185 0 51 1 10 3 -92 3 -102 0 -143 -2 -93 -3z"/>
<path d="M743 483 c15 -2 37 -2 50 0 12 2 0 4 -28 4 -27 0 -38 -2 -22 -4z"/>
<path d="M1032 448 c-7 -7 -12 -19 -12 -27 0 -11 6 -9 21 8 16 17 24 19 34 11
18 -15 11 -32 -25 -59 -43 -31 -39 -51 10 -51 22 0 40 5 40 10 0 6 -15 10 -32
10 l-33 1 33 27 c18 15 32 34 32 43 0 20 -20 39 -40 39 -9 0 -21 -5 -28 -12z"/>
<path d="M989 129 c-16 -34 -29 -63 -26 -65 2 -2 16 23 32 56 l28 59 56 4 56
3 -57 2 -58 2 -31 -61z"/>
<path d="M602 148 c-17 -17 -15 -47 3 -54 21 -9 47 15 43 40 -4 24 -28 32 -46
14z m32 -7 c9 -14 -4 -41 -20 -41 -15 0 -17 10 -8 34 7 18 20 21 28 7z"/>
<path d="M417 101 c-33 -50 -34 -61 -2 -61 16 0 25 -6 25 -15 0 -21 20 -19 21
3 2 41 -3 98 -10 105 -4 4 -20 -10 -34 -32z m23 -26 c0 -16 -6 -25 -15 -25
-18 0 -20 21 -3 38 17 17 18 16 18 -13z"/>
<path d="M500 128 c0 -7 -3 -23 -6 -35 -6 -21 -4 -22 23 -17 23 4 32 2 37 -11
10 -26 -4 -38 -36 -31 -26 5 -29 4 -18 -9 27 -33 75 -7 68 37 -2 17 -11 24
-30 26 -35 4 -38 32 -4 32 14 0 28 5 31 10 4 6 -8 10 -29 10 -22 0 -36 -5 -36
-12z"/>
<path d="M1042 128 c-7 -7 -12 -19 -12 -27 0 -11 6 -9 21 8 16 17 24 19 34 11
18 -15 11 -32 -25 -59 -43 -31 -39 -51 10 -51 22 0 40 5 40 10 0 6 -15 10 -32
10 l-33 1 33 27 c18 15 32 34 32 43 0 34 -44 51 -68 27z"/>
<path d="M17 103 c-15 -14 -5 -33 24 -49 24 -12 28 -18 18 -24 -7 -5 -21 -4
-32 2 -15 8 -18 7 -15 -4 3 -7 18 -13 34 -13 22 0 30 5 32 22 3 17 -3 24 -22
29 -26 6 -32 15 -19 27 3 4 12 2 20 -5 15 -12 28 -5 18 11 -7 12 -48 15 -58 4z"/>
<path d="M112 98 c-15 -15 -15 -61 0 -76 16 -16 43 -15 57 2 10 12 7 14 -16
13 -40 -3 -45 17 -5 21 17 2 32 9 32 16 0 17 -21 36 -40 36 -9 0 -21 -5 -28
-12z m48 -13 c11 -13 8 -15 -21 -15 -32 1 -33 1 -15 15 24 18 21 18 36 0z"/>
<path d="M212 98 c-17 -17 -15 -63 3 -78 20 -16 49 -9 53 14 4 19 3 19 -13 2
-13 -13 -20 -14 -31 -5 -31 26 -6 76 29 58 15 -9 18 -8 15 3 -6 18 -40 22 -56
6z"/>
<path d="M901 90 c0 -22 35 -85 41 -74 3 5 -6 27 -18 49 -13 22 -24 33 -23 25z"/>
<path d="M743 63 c15 -2 37 -2 50 0 12 2 0 4 -28 4 -27 0 -38 -2 -22 -4z"/>
<path d="M743 33 c15 -2 37 -2 50 0 12 2 0 4 -28 4 -27 0 -38 -2 -22 -4z"/>
</g>
</svg>
