<?xml version="1.0" standalone="no"?>
<!DOCTYPE svg PUBLIC "-//W3C//DTD SVG 20010904//EN"
 "http://www.w3.org/TR/2001/REC-SVG-20010904/DTD/svg10.dtd">
<svg version="1.0" xmlns="http://www.w3.org/2000/svg"
 width="328.000000pt" height="326.000000pt" viewBox="0 0 328.000000 326.000000"
 preserveAspectRatio="xMidYMid meet">

<g transform="translate(0.000000,326.000000) scale(0.100000,-0.100000)"
fill="#000000" stroke="none">
<path d="M1611 3180 c-7 -25 -16 -61 -22 -80 -7 -27 -6 -37 6 -46 12 -9 15
-40 15 -162 l0 -151 -32 -5 c-214 -30 -282 -48 -393 -104 -104 -52 -177 -104
-256 -185 -161 -162 -266 -385 -287 -607 l-7 -75 -207 -3 c-181 -2 -208 0
-208 13 0 19 -9 19 -95 -4 -75 -20 -74 -22 21 -46 76 -18 74 -18 74 0 0 13 30
15 210 15 l210 0 0 -49 c0 -146 80 -368 185 -516 106 -149 289 -289 451 -346
88 -30 222 -59 282 -59 l52 0 0 -270 c0 -233 -2 -270 -15 -270 -8 0 -15 -3
-15 -7 0 -13 38 -154 42 -159 2 -2 13 35 25 81 20 83 20 85 1 85 -18 0 -18 11
-16 268 l3 267 80 7 c276 24 540 174 704 402 111 154 159 288 187 519 l5 47
224 0 c192 0 225 -2 233 -16 8 -14 15 -13 78 2 38 9 72 20 77 24 4 3 -27 14
-69 24 -71 17 -78 17 -86 2 -8 -14 -37 -16 -233 -16 l-224 0 -5 48 c-21 176
-50 281 -107 394 -85 167 -260 343 -427 427 -100 51 -278 101 -360 101 -86 0
-83 -7 -80 169 2 118 6 155 16 154 16 -4 15 19 -7 102 l-18 70 -12 -45z m-1
-927 c0 -411 -2 -458 -17 -475 -15 -17 -43 -18 -469 -18 -297 0 -455 4 -459
10 -11 18 15 188 41 273 15 45 38 105 51 132 89 177 262 349 438 437 104 52
263 95 363 97 l52 1 0 -457z m187 442 c294 -56 549 -244 677 -500 65 -130 106
-277 106 -381 l0 -54 -458 0 c-428 0 -460 1 -475 18 -14 16 -16 68 -17 475 l0
457 44 0 c24 0 80 -7 123 -15z m-201 -969 c12 -12 14 -89 14 -475 l0 -461 -29
0 c-49 0 -203 29 -271 52 -131 43 -293 148 -385 250 -160 177 -236 348 -260
581 l-7 67 462 0 c387 0 464 -2 476 -14z m984 -34 c0 -105 -38 -247 -98 -367
-119 -239 -318 -409 -568 -488 -89 -28 -243 -53 -268 -44 -14 6 -16 55 -16
458 0 407 2 454 17 471 15 17 43 18 475 18 l458 0 0 -48z"/>
<path d="M1020 2195 c0 -11 12 -15 45 -15 33 0 45 4 45 15 0 11 -12 15 -45 15
-33 0 -45 -4 -45 -15z"/>
<path d="M1437 1932 c-33 -36 -13 -112 29 -112 25 0 54 20 54 36 0 12 -4 11
-18 -6 -34 -43 -85 2 -67 59 9 29 42 37 66 15 20 -18 27 -6 7 14 -18 18 -53
15 -71 -6z"/>
<path d="M2170 2185 c0 -33 -2 -35 -35 -35 -24 0 -35 -5 -35 -15 0 -10 11 -15
35 -15 33 0 35 -2 35 -35 0 -19 5 -35 10 -35 6 0 10 16 10 35 0 33 2 35 35 35
24 0 35 5 35 15 0 10 -11 15 -35 15 -33 0 -35 2 -35 35 0 19 -4 35 -10 35 -5
0 -10 -16 -10 -35z"/>
<path d="M1010 1345 c0 -11 12 -15 45 -15 33 0 45 4 45 15 0 11 -12 15 -45 15
-33 0 -45 -4 -45 -15z"/>
<path d="M2180 1405 c0 -32 -2 -35 -30 -35 -20 0 -30 -5 -30 -15 0 -10 10 -15
30 -15 28 0 30 -3 30 -35 0 -24 5 -35 15 -35 10 0 15 11 15 35 0 33 2 35 35
35 24 0 35 5 35 15 0 10 -11 15 -35 15 -33 0 -35 2 -35 35 0 24 -5 35 -15 35
-10 0 -15 -11 -15 -35z"/>
<path d="M1421 3190 c-9 -8 -12 -12 -7 -7 6 4 20 7 32 7 20 0 23 -6 27 -42 l4
-43 1 43 c2 32 6 42 19 42 9 0 13 3 9 7 -13 13 -69 9 -85 -7z"/>
<path d="M1426 3134 c-4 -9 -4 -19 -1 -22 2 -3 7 3 11 12 4 9 4 19 1 22 -2 3
-7 -3 -11 -12z"/>
<path d="M1428 3023 c17 -2 47 -2 65 0 17 2 3 4 -33 4 -36 0 -50 -2 -32 -4z"/>
<path d="M1720 2990 c-16 -31 5 -64 36 -56 28 7 33 -14 8 -35 -14 -11 -18 -10
-31 6 -15 20 -15 20 -11 0 4 -24 33 -32 53 -15 18 15 20 91 3 108 -18 18 -46
14 -58 -8z m44 4 c21 -8 21 -40 0 -48 -25 -10 -46 12 -33 35 11 21 11 21 33
13z"/>
<path d="M1820 2991 c-23 -44 -5 -111 30 -111 23 0 40 28 40 65 0 37 -17 65
-40 65 -11 0 -24 -9 -30 -19z m50 -10 c14 -27 13 -54 -4 -76 -12 -16 -16 -17
-30 -6 -28 23 -16 101 16 101 4 0 12 -9 18 -19z"/>
<path d="M1914 2996 c-9 -24 4 -48 23 -44 12 2 18 12 18 28 0 29 -32 41 -41
16z m34 -19 c2 -10 -3 -17 -12 -17 -10 0 -16 9 -16 21 0 24 23 21 28 -4z"/>
<path d="M1432 2958 c-15 -15 -16 -38 -2 -38 6 0 10 8 8 18 -2 11 3 17 17 17
29 0 32 -41 4 -71 -12 -13 -18 -24 -11 -24 15 0 52 49 52 69 0 21 -19 41 -40
41 -9 0 -21 -5 -28 -12z"/>
<path d="M1427 2838 c-7 -4 7 -8 31 -8 23 0 42 3 42 8 0 9 -58 9 -73 0z"/>
<path d="M2772 1948 c-17 -17 -15 -93 3 -108 20 -17 54 -3 61 26 16 61 -28
118 -64 82z m48 -24 c11 -27 4 -70 -12 -80 -29 -18 -53 67 -26 94 18 18 27 15
38 -14z"/>
<path d="M2854 1946 c-13 -33 23 -65 41 -36 3 5 0 7 -8 4 -20 -7 -32 15 -18
29 9 9 14 8 22 -3 9 -13 10 -13 6 0 -5 21 -36 25 -43 6z"/>
<path d="M380 1915 c-9 -11 -10 -19 -2 -27 8 -8 7 -16 -1 -29 -16 -25 2 -54
33 -54 28 0 46 26 35 51 -4 11 -8 30 -9 44 -1 30 -36 39 -56 15z m45 -16 c0
-7 -8 -15 -17 -17 -18 -3 -25 18 -11 32 10 10 28 1 28 -15z m5 -45 c11 -12 11
-18 -2 -30 -18 -18 -48 -8 -48 16 0 16 11 27 31 29 4 1 12 -6 19 -15z"/>
<path d="M480 1915 c-16 -19 -16 -81 0 -100 28 -34 62 -6 62 50 0 37 -16 65
-37 65 -7 0 -18 -7 -25 -15z m50 -50 c0 -42 -11 -57 -37 -48 -8 3 -13 22 -13
48 0 26 5 45 13 48 26 9 37 -6 37 -48z"/>
<path d="M564 1916 c-9 -24 4 -48 23 -44 12 2 18 12 18 28 0 29 -32 41 -41 16z
m36 -16 c0 -11 -7 -20 -15 -20 -8 0 -15 9 -15 20 0 11 7 20 15 20 8 0 15 -9
15 -20z"/>
<path d="M298 1909 c-10 -5 -18 -15 -18 -21 0 -7 5 -6 14 2 13 10 15 3 19 -42
l3 -53 2 63 c1 34 1 62 0 62 -2 0 -11 -5 -20 -11z"/>
<path d="M333 1663 c-7 -2 -13 -9 -13 -15 0 -6 6 -5 15 2 22 18 27 8 14 -29
-6 -18 -9 -34 -6 -38 3 -3 11 13 17 36 12 46 35 58 26 14 -3 -16 -2 -35 4 -43
7 -11 10 -4 10 27 0 31 4 43 18 46 9 3 -3 5 -28 5 -25 0 -51 -2 -57 -5z"/>
<path d="M2692 1648 c-20 -20 -13 -32 8 -13 17 15 23 16 33 6 9 -10 9 -15 -4
-24 -15 -10 -15 -12 5 -28 20 -17 20 -19 4 -35 -17 -17 -18 -17 -38 1 -11 10
-20 13 -20 8 0 -16 27 -35 46 -31 24 4 39 32 29 54 -4 11 -8 30 -9 44 -1 28
-33 39 -54 18z"/>
<path d="M2792 1648 c-16 -16 -16 -90 0 -106 20 -20 48 -14 60 14 16 34 -1 60
-36 57 -29 -2 -33 8 -11 27 12 10 19 10 27 2 17 -17 33 -15 18 3 -15 18 -42
19 -58 3z m47 -57 c7 -13 6 -24 -3 -37 -12 -15 -16 -16 -30 -5 -19 16 -20 33
-4 49 17 17 26 15 37 -7z"/>
<path d="M2890 1645 c-16 -20 -17 -80 -1 -99 29 -35 63 -8 63 49 0 56 -34 84
-62 50z m50 -50 c0 -42 -18 -64 -41 -49 -14 8 -11 92 4 97 26 9 37 -6 37 -48z"/>
<path d="M2974 1646 c-9 -24 4 -48 23 -44 12 2 18 12 18 28 0 29 -32 41 -41
16z m36 -16 c0 -11 -7 -20 -15 -20 -8 0 -15 9 -15 20 0 11 7 20 15 20 8 0 15
-9 15 -20z"/>
<path d="M1331 686 c-8 -10 -9 -16 -1 -21 5 -3 10 1 10 9 0 9 9 16 20 16 25 0
27 -35 4 -48 -15 -8 -15 -10 0 -15 21 -8 20 -53 -1 -66 -24 -14 -7 -14 18 -1
20 11 26 54 9 65 -6 4 -5 13 2 25 23 36 -34 69 -61 36z"/>
<path d="M1429 633 c-13 -15 -12 -15 8 -5 16 9 23 9 26 -1 4 -9 6 -9 6 1 1 6
5 12 11 12 5 0 9 -16 8 -35 -1 -19 2 -38 5 -42 4 -3 7 12 7 35 0 30 4 42 18
45 9 3 -4 5 -29 6 -32 1 -51 -4 -60 -16z"/>
<path d="M1445 590 c-4 -12 -5 -24 -2 -27 3 -2 8 5 12 17 4 12 5 24 2 27 -3 2
-8 -5 -12 -17z"/>
<path d="M1320 586 c0 -8 5 -18 10 -21 6 -3 10 1 10 9 0 8 -4 18 -10 21 -5 3
-10 -1 -10 -9z"/>
<path d="M1702 528 c-21 -21 -13 -32 8 -13 19 17 22 17 36 3 15 -14 13 -19
-20 -56 -20 -21 -36 -42 -36 -46 0 -3 19 -5 43 -4 36 1 38 2 10 5 -39 5 -42
15 -9 37 14 8 27 25 31 36 12 39 -34 67 -63 38z"/>
<path d="M1794 531 c3 -4 17 -6 31 -3 30 5 30 6 5 -43 -11 -22 -20 -48 -20
-60 1 -11 10 2 20 29 11 27 24 54 30 60 19 19 10 26 -31 26 -22 0 -38 -4 -35
-9z"/>
<path d="M1902 528 c-7 -7 -12 -30 -12 -53 0 -60 30 -83 64 -49 21 20 21 78 0
98 -19 19 -36 20 -52 4z m48 -19 c12 -22 5 -75 -11 -85 -30 -18 -54 67 -27 94
17 17 26 15 38 -9z"/>
<path d="M1984 526 c-9 -24 4 -48 23 -44 24 4 24 52 0 56 -9 2 -20 -4 -23 -12z
m36 -16 c0 -11 -4 -20 -9 -20 -14 0 -23 18 -16 30 10 17 25 11 25 -10z"/>
<path d="M1390 395 c-9 -11 -10 -19 -3 -26 8 -8 13 -7 17 0 4 6 1 11 -6 11 -8
1 -6 6 6 15 11 8 15 15 9 15 -6 0 -16 -7 -23 -15z"/>
<path d="M1441 392 c10 -17 10 -24 -4 -46 -21 -31 -5 -35 17 -5 16 23 9 60
-13 67 -10 3 -10 0 0 -16z"/>
<path d="M1385 280 c-4 -6 10 -10 34 -10 23 0 41 5 41 10 0 6 -15 10 -34 10
-19 0 -38 -4 -41 -10z"/>
</g>
</svg>
